<svg width="1050" height="601" viewBox="0 0 1050 601" fill="none" xmlns="http://www.w3.org/2000/svg">
<rect width="1050" height="600" transform="translate(0 0.810944)" fill="#C09E62"/>
<circle cx="798.266" cy="59" r="28.2665" fill="#352D1F"/>
<mask id="mask0_5_128" style="mask-type:alpha" maskUnits="userSpaceOnUse" x="782" y="43" width="32" height="32">
<rect x="782.848" y="43.5819" width="30.8361" height="30.8361" fill="#D9D9D9"/>
</mask>
<g mask="url(#mask0_5_128)">
<path d="M808.481 70.5636C805.804 70.5636 803.16 69.98 800.547 68.813C797.935 67.6459 795.558 65.9917 793.416 63.8503C791.275 61.7089 789.621 59.3319 788.453 56.7194C787.286 54.1069 786.703 51.4623 786.703 48.7855C786.703 48.4001 786.831 48.0789 787.088 47.8219C787.345 47.5649 787.667 47.4365 788.052 47.4365H793.256C793.555 47.4365 793.823 47.5382 794.059 47.7416C794.294 47.945 794.433 48.186 794.476 48.4643L795.311 52.9613C795.354 53.3039 795.343 53.593 795.279 53.8285C795.215 54.0641 795.097 54.2675 794.926 54.4388L791.81 57.5867C792.238 58.379 792.747 59.1446 793.336 59.8833C793.925 60.6221 794.573 61.3341 795.279 62.0194C795.943 62.6832 796.639 63.2989 797.367 63.8663C798.095 64.4338 798.866 64.9531 799.68 65.4242L802.699 62.4048C802.892 62.2121 803.143 62.0676 803.454 61.9712C803.764 61.8748 804.07 61.8481 804.369 61.8909L808.802 62.7903C809.102 62.8759 809.348 63.0312 809.541 63.256C809.734 63.4809 809.83 63.7325 809.83 64.0109V69.2145C809.83 69.5999 809.701 69.9211 809.445 70.1781C809.188 70.4351 808.866 70.5636 808.481 70.5636ZM790.59 55.1455L792.71 53.0255L792.163 50.0061H789.305C789.412 50.8841 789.562 51.7514 789.754 52.6079C789.947 53.4645 790.225 54.3103 790.59 55.1455ZM802.089 66.6448C802.924 67.0088 803.775 67.2979 804.642 67.5121C805.51 67.7262 806.382 67.8654 807.26 67.9296V65.103L804.241 64.4927L802.089 66.6448Z" fill="white"/>
</g>
<path d="M851.847 29.585L842.849 29.834L841.87 32.5732L840.243 32.1914L840.376 27.1113L842.916 27.2939L854.122 27.2109L854.786 29.0869L844.908 48.1123L841.969 47L851.847 29.585ZM869.213 29.585L860.215 29.834L859.235 32.5732L857.608 32.1914L857.741 27.1113L860.281 27.2939L871.487 27.2109L872.151 29.0869L862.273 48.1123L859.335 47L869.213 29.585ZM881.929 47.2988C880.557 47.2988 879.34 46.9281 878.277 46.1865C877.215 45.4339 876.385 44.3493 875.787 42.9326C875.189 41.516 874.89 39.8392 874.89 37.9023C874.89 35.7552 875.173 33.8571 875.737 32.208C876.313 30.5479 877.192 29.2474 878.377 28.3066C879.561 27.3548 881.038 26.8789 882.809 26.8789C884.06 26.8789 885.211 27.2552 886.262 28.0078C887.314 28.7493 888.149 29.8229 888.769 31.2285C889.389 32.6341 889.699 34.2832 889.699 36.1758C889.699 38.3229 889.411 40.2376 888.836 41.9199C888.26 43.5911 887.391 44.9082 886.229 45.8711C885.067 46.8229 883.634 47.2988 881.929 47.2988ZM878.659 41.0566C878.825 41.8314 879.107 42.5618 879.506 43.248C879.915 43.9342 880.408 44.4876 880.983 44.9082C881.559 45.3288 882.167 45.5391 882.809 45.5391C883.728 45.5391 884.337 45.3896 884.635 45.0908C885.156 44.5817 885.571 43.6686 885.881 42.3516C886.202 41.0345 886.362 39.6676 886.362 38.251C886.362 35.0081 885.964 32.6009 885.167 31.0293C884.813 30.3431 884.326 29.7731 883.706 29.3193C883.097 28.8545 882.411 28.6221 881.647 28.6221C881.271 28.6221 880.928 28.6663 880.618 28.7549C880.319 28.8324 880.092 28.943 879.937 29.0869C879.627 29.3857 879.34 29.8783 879.074 30.5645C878.819 31.2507 878.615 32.0475 878.46 32.9551C878.316 33.8516 878.244 34.7591 878.244 35.6777C878.244 36.7181 878.283 37.7308 878.36 38.7158C878.438 39.6898 878.537 40.4701 878.659 41.0566ZM893.899 42.4014C893.899 41.2171 894.248 40.1989 894.945 39.3467C895.642 38.4945 896.583 37.7253 897.767 37.0391C896.694 36.4193 895.864 35.7109 895.277 34.9141C894.702 34.1061 894.414 33.099 894.414 31.8926C894.414 30.974 894.668 30.1328 895.177 29.3691C895.698 28.6055 896.423 28.0023 897.352 27.5596C898.282 27.1058 899.333 26.8789 900.507 26.8789C901.602 26.8789 902.615 27.0726 903.545 27.46C904.474 27.8363 905.216 28.3786 905.769 29.0869C906.334 29.7952 906.616 30.6253 906.616 31.5771C906.616 32.6839 906.317 33.6468 905.719 34.4658C905.133 35.2738 904.353 36.0042 903.379 36.6572C904.585 37.3213 905.52 38.0905 906.184 38.9648C906.859 39.8392 907.197 40.9238 907.197 42.2188C907.197 43.2702 906.915 44.1888 906.35 44.9746C905.786 45.7493 905.011 46.347 904.026 46.7676C903.052 47.1771 901.962 47.3818 900.756 47.3818C899.571 47.3818 898.459 47.2103 897.419 46.8672C896.378 46.5241 895.532 45.9818 894.879 45.2402C894.226 44.4987 893.899 43.5524 893.899 42.4014ZM902.316 36.0596C902.692 35.473 903.024 34.8587 903.312 34.2168C903.611 33.5749 903.76 32.9495 903.76 32.3408C903.76 31.555 903.572 30.8688 903.196 30.2822C902.831 29.6956 902.333 29.2474 901.702 28.9375C901.071 28.6276 900.385 28.4727 899.643 28.4727C898.835 28.4727 898.243 28.6387 897.867 28.9707C897.646 29.1699 897.474 29.4688 897.352 29.8672C897.242 30.2546 897.186 30.6585 897.186 31.0791C897.186 32.0309 897.496 32.8223 898.116 33.4531C898.47 33.8294 899.046 34.2555 899.843 34.7314C900.65 35.2074 901.475 35.6501 902.316 36.0596ZM896.921 41.6377C896.921 42.3682 897.12 43.0378 897.518 43.6465C897.917 44.2552 898.448 44.7367 899.112 45.0908C899.776 45.4339 900.484 45.6055 901.237 45.6055C901.846 45.6055 902.366 45.5612 902.798 45.4727C903.229 45.373 903.611 45.1683 903.943 44.8584C904.297 44.5374 904.474 43.9951 904.474 43.2314C904.474 42.2575 904.187 41.4385 903.611 40.7744C903.146 40.2321 902.432 39.6676 901.469 39.0811C900.518 38.4834 899.621 37.9909 898.78 37.6035C898.382 38.1126 898.061 38.5498 897.817 38.915C897.585 39.2803 897.374 39.7008 897.186 40.1768C897.009 40.6416 896.921 41.1286 896.921 41.6377ZM912.111 32.4238L912.028 28.6387C912.714 28.207 913.489 27.8639 914.352 27.6094C915.216 27.3438 916.018 27.1556 916.76 27.0449C917.501 26.9342 918.082 26.8789 918.503 26.8789C919.82 26.8789 920.976 27.0892 921.972 27.5098C922.969 27.9303 923.738 28.5335 924.28 29.3193C924.833 30.0941 925.11 31.0127 925.11 32.0752C925.11 33.3037 924.64 34.6042 923.699 35.9766C922.769 37.349 921.657 38.6549 920.362 39.8945C919.067 41.123 917.407 42.6006 915.382 44.3271L914.402 45.1572L922.786 44.4932L924.712 41.5547L926.139 41.9199L924.927 47H911.995L911.414 45.4395C912.2 44.5872 913.4 43.3311 915.016 41.6709C915.238 41.4495 915.885 40.7799 916.959 39.6621C918.032 38.5443 918.851 37.6589 919.416 37.0059C920.024 36.3197 920.567 35.5283 921.043 34.6318C921.519 33.7354 921.757 32.8831 921.757 32.0752C921.757 31.5107 921.613 30.9961 921.325 30.5312C921.004 30.0332 920.462 29.6348 919.698 29.3359C918.934 29.0371 918.027 28.8877 916.975 28.8877C916.389 28.8877 915.714 28.9486 914.95 29.0703L913.638 32.7559L912.111 32.4238ZM930.987 47.332C933.411 46.4245 935.326 45.3509 936.731 44.1113C938.148 42.8607 939.144 41.4993 939.719 40.0273C940.306 38.5553 940.599 36.9339 940.599 35.1631C940.599 34.1891 940.428 33.182 940.085 32.1416C939.753 31.1012 939.244 30.2656 938.557 29.6348C937.838 28.9818 936.947 28.6553 935.885 28.6553C934.877 28.6553 934.152 28.932 933.71 29.4854C933.488 29.762 933.317 30.1605 933.195 30.6807C933.084 31.1898 933.029 31.7819 933.029 32.457C933.029 33.1654 933.09 33.7796 933.212 34.2998C933.344 34.82 933.599 35.2959 933.975 35.7275C934.385 36.2035 934.944 36.5742 935.652 36.8398C936.36 37.1055 937.257 37.2715 938.342 37.3379L938.574 38.1348C938.054 38.334 937.484 38.4779 936.864 38.5664C936.255 38.6549 935.691 38.6992 935.171 38.6992C934.385 38.6992 933.665 38.5719 933.012 38.3174C932.371 38.0518 931.856 37.7031 931.469 37.2715C930.97 36.7292 930.605 36.137 930.373 35.4951C930.14 34.8532 930.024 34.0785 930.024 33.1709C930.024 31.9313 930.301 30.8356 930.854 29.8838C931.408 28.932 932.182 28.196 933.178 27.6758C934.186 27.1445 935.342 26.8789 936.648 26.8789C938.153 26.8789 939.448 27.2275 940.533 27.9248C941.618 28.611 942.442 29.5905 943.007 30.8633C943.582 32.125 943.87 33.597 943.87 35.2793C943.87 37.0501 943.61 38.666 943.09 40.127C942.58 41.5768 941.745 42.9271 940.583 44.1777C939.808 45.0078 938.889 45.7438 937.827 46.3857C936.775 47.0277 935.674 47.5257 934.523 47.8799C933.372 48.2451 932.271 48.4277 931.219 48.4277L930.987 47.332ZM948.053 42.4014C948.053 41.2171 948.402 40.1989 949.099 39.3467C949.797 38.4945 950.737 37.7253 951.922 37.0391C950.848 36.4193 950.018 35.7109 949.431 34.9141C948.856 34.1061 948.568 33.099 948.568 31.8926C948.568 30.974 948.823 30.1328 949.332 29.3691C949.852 28.6055 950.577 28.0023 951.507 27.5596C952.436 27.1058 953.488 26.8789 954.661 26.8789C955.757 26.8789 956.769 27.0726 957.699 27.46C958.629 27.8363 959.37 28.3786 959.924 29.0869C960.488 29.7952 960.77 30.6253 960.77 31.5771C960.77 32.6839 960.471 33.6468 959.874 34.4658C959.287 35.2738 958.507 36.0042 957.533 36.6572C958.739 37.3213 959.675 38.0905 960.339 38.9648C961.014 39.8392 961.351 40.9238 961.351 42.2188C961.351 43.2702 961.069 44.1888 960.505 44.9746C959.94 45.7493 959.165 46.347 958.18 46.7676C957.206 47.1771 956.116 47.3818 954.91 47.3818C953.726 47.3818 952.613 47.2103 951.573 46.8672C950.533 46.5241 949.686 45.9818 949.033 45.2402C948.38 44.4987 948.053 43.5524 948.053 42.4014ZM956.47 36.0596C956.847 35.473 957.179 34.8587 957.467 34.2168C957.765 33.5749 957.915 32.9495 957.915 32.3408C957.915 31.555 957.727 30.8688 957.35 30.2822C956.985 29.6956 956.487 29.2474 955.856 28.9375C955.225 28.6276 954.539 28.4727 953.798 28.4727C952.99 28.4727 952.398 28.6387 952.021 28.9707C951.8 29.1699 951.628 29.4688 951.507 29.8672C951.396 30.2546 951.341 30.6585 951.341 31.0791C951.341 32.0309 951.65 32.8223 952.27 33.4531C952.624 33.8294 953.2 34.2555 953.997 34.7314C954.805 35.2074 955.629 35.6501 956.47 36.0596ZM951.075 41.6377C951.075 42.3682 951.274 43.0378 951.673 43.6465C952.071 44.2552 952.602 44.7367 953.266 45.0908C953.93 45.4339 954.639 45.6055 955.391 45.6055C956 45.6055 956.52 45.5612 956.952 45.4727C957.384 45.373 957.765 45.1683 958.097 44.8584C958.452 44.5374 958.629 43.9951 958.629 43.2314C958.629 42.2575 958.341 41.4385 957.765 40.7744C957.301 40.2321 956.587 39.6676 955.624 39.0811C954.672 38.4834 953.775 37.9909 952.934 37.6035C952.536 38.1126 952.215 38.5498 951.971 38.915C951.739 39.2803 951.529 39.7008 951.341 40.1768C951.163 40.6416 951.075 41.1286 951.075 41.6377ZM966.149 47.332C968.573 46.4245 970.488 45.3509 971.893 44.1113C973.31 42.8607 974.306 41.4993 974.882 40.0273C975.468 38.5553 975.761 36.9339 975.761 35.1631C975.761 34.1891 975.59 33.182 975.247 32.1416C974.915 31.1012 974.406 30.2656 973.719 29.6348C973 28.9818 972.109 28.6553 971.047 28.6553C970.039 28.6553 969.315 28.932 968.872 29.4854C968.65 29.762 968.479 30.1605 968.357 30.6807C968.247 31.1898 968.191 31.7819 968.191 32.457C968.191 33.1654 968.252 33.7796 968.374 34.2998C968.507 34.82 968.761 35.2959 969.137 35.7275C969.547 36.2035 970.106 36.5742 970.814 36.8398C971.523 37.1055 972.419 37.2715 973.504 37.3379L973.736 38.1348C973.216 38.334 972.646 38.4779 972.026 38.5664C971.417 38.6549 970.853 38.6992 970.333 38.6992C969.547 38.6992 968.828 38.5719 968.175 38.3174C967.533 38.0518 967.018 37.7031 966.631 37.2715C966.133 36.7292 965.767 36.137 965.535 35.4951C965.302 34.8532 965.186 34.0785 965.186 33.1709C965.186 31.9313 965.463 30.8356 966.016 29.8838C966.57 28.932 967.344 28.196 968.341 27.6758C969.348 27.1445 970.504 26.8789 971.81 26.8789C973.316 26.8789 974.61 27.2275 975.695 27.9248C976.78 28.611 977.604 29.5905 978.169 30.8633C978.744 32.125 979.032 33.597 979.032 35.2793C979.032 37.0501 978.772 38.666 978.252 40.127C977.743 41.5768 976.907 42.9271 975.745 44.1777C974.97 45.0078 974.052 45.7438 972.989 46.3857C971.938 47.0277 970.836 47.5257 969.685 47.8799C968.534 48.2451 967.433 48.4277 966.382 48.4277L966.149 47.332ZM983.846 47.332C986.27 46.4245 988.185 45.3509 989.591 44.1113C991.007 42.8607 992.003 41.4993 992.579 40.0273C993.165 38.5553 993.459 36.9339 993.459 35.1631C993.459 34.1891 993.287 33.182 992.944 32.1416C992.612 31.1012 992.103 30.2656 991.417 29.6348C990.697 28.9818 989.806 28.6553 988.744 28.6553C987.737 28.6553 987.012 28.932 986.569 29.4854C986.348 29.762 986.176 30.1605 986.054 30.6807C985.944 31.1898 985.888 31.7819 985.888 32.457C985.888 33.1654 985.949 33.7796 986.071 34.2998C986.204 34.82 986.458 35.2959 986.835 35.7275C987.244 36.2035 987.803 36.5742 988.511 36.8398C989.22 37.1055 990.116 37.2715 991.201 37.3379L991.433 38.1348C990.913 38.334 990.343 38.4779 989.723 38.5664C989.115 38.6549 988.55 38.6992 988.03 38.6992C987.244 38.6992 986.525 38.5719 985.872 38.3174C985.23 38.0518 984.715 37.7031 984.328 37.2715C983.83 36.7292 983.465 36.137 983.232 35.4951C983 34.8532 982.884 34.0785 982.884 33.1709C982.884 31.9313 983.16 30.8356 983.714 29.8838C984.267 28.932 985.042 28.196 986.038 27.6758C987.045 27.1445 988.202 26.8789 989.508 26.8789C991.013 26.8789 992.308 27.2275 993.392 27.9248C994.477 28.611 995.302 29.5905 995.866 30.8633C996.441 32.125 996.729 33.597 996.729 35.2793C996.729 37.0501 996.469 38.666 995.949 40.127C995.44 41.5768 994.604 42.9271 993.442 44.1777C992.667 45.0078 991.749 45.7438 990.686 46.3857C989.635 47.0277 988.534 47.5257 987.383 47.8799C986.232 48.2451 985.13 48.4277 984.079 48.4277L983.846 47.332ZM1000.55 47.249C1002.17 46.8727 1003.63 46.4521 1004.91 45.9873C1006.2 45.5225 1007.3 44.8861 1008.23 44.0781C1009.17 43.2591 1009.65 42.2575 1009.65 41.0732C1009.65 39.6012 1009.13 38.5387 1008.1 37.8857C1007.08 37.2327 1005.75 36.9062 1004.1 36.9062C1003.31 36.9062 1002.56 36.945 1001.83 37.0225L1002.06 27.2939H1013.25L1012.17 29.7344L1004.57 29.4189L1004.35 35.5615C1005.23 35.473 1006 35.4287 1006.66 35.4287C1008.66 35.4287 1010.2 35.877 1011.27 36.7734C1012.36 37.6589 1012.9 39.0202 1012.9 40.8574C1012.9 42.6615 1012.23 44.1279 1010.89 45.2568C1009.56 46.3747 1007.97 47.1771 1006.13 47.6641C1004.29 48.151 1002.52 48.4167 1000.83 48.4609L1000.55 47.249Z" fill="#352D1F"/>
<path d="M851.847 65.585L842.849 65.834L841.87 68.5732L840.243 68.1914L840.376 63.1113L842.916 63.2939L854.122 63.2109L854.786 65.0869L844.908 84.1123L841.969 83L851.847 65.585ZM858.604 83.332C861.028 82.4245 862.943 81.3509 864.348 80.1113C865.765 78.8607 866.761 77.4993 867.337 76.0273C867.923 74.5553 868.217 72.9339 868.217 71.1631C868.217 70.1891 868.045 69.182 867.702 68.1416C867.37 67.1012 866.861 66.2656 866.175 65.6348C865.455 64.9818 864.564 64.6553 863.502 64.6553C862.495 64.6553 861.77 64.932 861.327 65.4854C861.106 65.762 860.934 66.1605 860.812 66.6807C860.702 67.1898 860.646 67.7819 860.646 68.457C860.646 69.1654 860.707 69.7796 860.829 70.2998C860.962 70.82 861.216 71.2959 861.593 71.7275C862.002 72.2035 862.561 72.5742 863.269 72.8398C863.978 73.1055 864.874 73.2715 865.959 73.3379L866.191 74.1348C865.671 74.334 865.101 74.4779 864.481 74.5664C863.872 74.6549 863.308 74.6992 862.788 74.6992C862.002 74.6992 861.283 74.5719 860.63 74.3174C859.988 74.0518 859.473 73.7031 859.086 73.2715C858.588 72.7292 858.222 72.137 857.99 71.4951C857.758 70.8532 857.641 70.0785 857.641 69.1709C857.641 67.9313 857.918 66.8356 858.471 65.8838C859.025 64.932 859.8 64.196 860.796 63.6758C861.803 63.1445 862.959 62.8789 864.265 62.8789C865.771 62.8789 867.066 63.2275 868.15 63.9248C869.235 64.611 870.059 65.5905 870.624 66.8633C871.199 68.125 871.487 69.597 871.487 71.2793C871.487 73.0501 871.227 74.666 870.707 76.127C870.198 77.5768 869.362 78.9271 868.2 80.1777C867.425 81.0078 866.507 81.7438 865.444 82.3857C864.393 83.0277 863.291 83.5257 862.14 83.8799C860.989 84.2451 859.888 84.4277 858.837 84.4277L858.604 83.332ZM882.76 83.2988C881.387 83.2988 880.17 82.9281 879.107 82.1865C878.045 81.4339 877.215 80.3493 876.617 78.9326C876.019 77.516 875.72 75.8392 875.72 73.9023C875.72 71.7552 876.003 69.8571 876.567 68.208C877.143 66.5479 878.023 65.2474 879.207 64.3066C880.391 63.3548 881.869 62.8789 883.639 62.8789C884.89 62.8789 886.041 63.2552 887.093 64.0078C888.144 64.7493 888.98 65.8229 889.599 67.2285C890.219 68.6341 890.529 70.2832 890.529 72.1758C890.529 74.3229 890.241 76.2376 889.666 77.9199C889.09 79.5911 888.221 80.9082 887.059 81.8711C885.897 82.8229 884.464 83.2988 882.76 83.2988ZM879.489 77.0566C879.655 77.8314 879.937 78.5618 880.336 79.248C880.745 79.9342 881.238 80.4876 881.813 80.9082C882.389 81.3288 882.997 81.5391 883.639 81.5391C884.558 81.5391 885.167 81.3896 885.466 81.0908C885.986 80.5817 886.401 79.6686 886.711 78.3516C887.032 77.0345 887.192 75.6676 887.192 74.251C887.192 71.0081 886.794 68.6009 885.997 67.0293C885.643 66.3431 885.156 65.7731 884.536 65.3193C883.927 64.8545 883.241 64.6221 882.477 64.6221C882.101 64.6221 881.758 64.6663 881.448 64.7549C881.149 64.8324 880.922 64.943 880.767 65.0869C880.457 65.3857 880.17 65.8783 879.904 66.5645C879.649 67.2507 879.445 68.0475 879.29 68.9551C879.146 69.8516 879.074 70.7591 879.074 71.6777C879.074 72.7181 879.113 73.7308 879.19 74.7158C879.268 75.6898 879.367 76.4701 879.489 77.0566ZM908.376 78.4346H905.802V83.9297L902.964 84.959V78.4346H894.132L893.368 77.0898L902.383 62.8789L905.188 64.041L896.871 76.3926L902.964 76.1768V72.7236L905.802 71.7109V76.0771L908.824 75.9609L908.376 78.4346ZM919.681 83.2988C918.309 83.2988 917.092 82.9281 916.029 82.1865C914.967 81.4339 914.136 80.3493 913.539 78.9326C912.941 77.516 912.642 75.8392 912.642 73.9023C912.642 71.7552 912.925 69.8571 913.489 68.208C914.065 66.5479 914.944 65.2474 916.129 64.3066C917.313 63.3548 918.79 62.8789 920.561 62.8789C921.812 62.8789 922.963 63.2552 924.014 64.0078C925.066 64.7493 925.901 65.8229 926.521 67.2285C927.141 68.6341 927.451 70.2832 927.451 72.1758C927.451 74.3229 927.163 76.2376 926.588 77.9199C926.012 79.5911 925.143 80.9082 923.981 81.8711C922.819 82.8229 921.386 83.2988 919.681 83.2988ZM916.411 77.0566C916.577 77.8314 916.859 78.5618 917.258 79.248C917.667 79.9342 918.16 80.4876 918.735 80.9082C919.311 81.3288 919.919 81.5391 920.561 81.5391C921.48 81.5391 922.089 81.3896 922.387 81.0908C922.908 80.5817 923.323 79.6686 923.633 78.3516C923.954 77.0345 924.114 75.6676 924.114 74.251C924.114 71.0081 923.716 68.6009 922.919 67.0293C922.565 66.3431 922.078 65.7731 921.458 65.3193C920.849 64.8545 920.163 64.6221 919.399 64.6221C919.023 64.6221 918.68 64.6663 918.37 64.7549C918.071 64.8324 917.844 64.943 917.689 65.0869C917.379 65.3857 917.092 65.8783 916.826 66.5645C916.571 67.2507 916.367 68.0475 916.212 68.9551C916.068 69.8516 915.996 70.7591 915.996 71.6777C915.996 72.7181 916.035 73.7308 916.112 74.7158C916.19 75.6898 916.289 76.4701 916.411 77.0566ZM945.298 78.4346H942.724V83.9297L939.885 84.959V78.4346H931.053L930.29 77.0898L939.304 62.8789L942.11 64.041L933.793 76.3926L939.885 76.1768V72.7236L942.724 71.7109V76.0771L945.746 75.9609L945.298 78.4346ZM956.603 83.2988C955.231 83.2988 954.013 82.9281 952.951 82.1865C951.888 81.4339 951.058 80.3493 950.461 78.9326C949.863 77.516 949.564 75.8392 949.564 73.9023C949.564 71.7552 949.846 69.8571 950.411 68.208C950.986 66.5479 951.866 65.2474 953.051 64.3066C954.235 63.3548 955.712 62.8789 957.483 62.8789C958.734 62.8789 959.885 63.2552 960.936 64.0078C961.988 64.7493 962.823 65.8229 963.443 67.2285C964.063 68.6341 964.373 70.2832 964.373 72.1758C964.373 74.3229 964.085 76.2376 963.51 77.9199C962.934 79.5911 962.065 80.9082 960.903 81.8711C959.741 82.8229 958.308 83.2988 956.603 83.2988ZM953.333 77.0566C953.499 77.8314 953.781 78.5618 954.179 79.248C954.589 79.9342 955.081 80.4876 955.657 80.9082C956.233 81.3288 956.841 81.5391 957.483 81.5391C958.402 81.5391 959.01 81.3896 959.309 81.0908C959.83 80.5817 960.245 79.6686 960.554 78.3516C960.875 77.0345 961.036 75.6676 961.036 74.251C961.036 71.0081 960.637 68.6009 959.841 67.0293C959.486 66.3431 958.999 65.7731 958.38 65.3193C957.771 64.8545 957.085 64.6221 956.321 64.6221C955.945 64.6221 955.602 64.6663 955.292 64.7549C954.993 64.8324 954.766 64.943 954.611 65.0869C954.301 65.3857 954.013 65.8783 953.748 66.5645C953.493 67.2507 953.288 68.0475 953.134 68.9551C952.99 69.8516 952.918 70.7591 952.918 71.6777C952.918 72.7181 952.956 73.7308 953.034 74.7158C953.111 75.6898 953.211 76.4701 953.333 77.0566ZM969.32 68.4238L969.237 64.6387C969.923 64.207 970.698 63.8639 971.561 63.6094C972.425 63.3438 973.227 63.1556 973.969 63.0449C974.71 62.9342 975.291 62.8789 975.712 62.8789C977.029 62.8789 978.185 63.0892 979.181 63.5098C980.177 63.9303 980.947 64.5335 981.489 65.3193C982.042 66.0941 982.319 67.0127 982.319 68.0752C982.319 69.3037 981.849 70.6042 980.908 71.9766C979.978 73.349 978.866 74.6549 977.571 75.8945C976.276 77.123 974.616 78.6006 972.591 80.3271L971.611 81.1572L979.995 80.4932L981.921 77.5547L983.348 77.9199L982.136 83H969.204L968.623 81.4395C969.409 80.5872 970.609 79.3311 972.225 77.6709C972.447 77.4495 973.094 76.7799 974.168 75.6621C975.241 74.5443 976.06 73.6589 976.625 73.0059C977.233 72.3197 977.776 71.5283 978.252 70.6318C978.728 69.7354 978.966 68.8831 978.966 68.0752C978.966 67.5107 978.822 66.9961 978.534 66.5312C978.213 66.0332 977.671 65.6348 976.907 65.3359C976.143 65.0371 975.236 64.8877 974.184 64.8877C973.598 64.8877 972.923 64.9486 972.159 65.0703L970.847 68.7559L969.32 68.4238ZM1001.21 78.4346H998.638V83.9297L995.8 84.959V78.4346H986.968L986.204 77.0898L995.219 62.8789L998.024 64.041L989.707 76.3926L995.8 76.1768V72.7236L998.638 71.7109V76.0771L1001.66 75.9609L1001.21 78.4346ZM1015.67 65.585L1006.67 65.834L1005.69 68.5732L1004.07 68.1914L1004.2 63.1113L1006.74 63.2939L1017.95 63.2109L1018.61 65.0869L1008.73 84.1123L1005.79 83L1015.67 65.585Z" fill="#352D1F"/>
<g clip-path="url(#clip0_5_128)">
<path d="M641.675 118.964C647.847 135.06 650.622 152.234 649.842 169.415L648.687 169.328C649.454 152.307 646.703 135.295 640.59 119.352C634.029 102.239 623.756 86.7805 610.506 74.0793C597.257 61.3782 581.358 51.7481 563.945 45.8761C546.533 40.0041 528.036 38.0348 509.776 40.1088C491.515 42.1828 473.942 48.249 458.31 57.875C442.678 67.5011 429.374 80.4494 419.349 95.796C409.324 111.143 402.826 128.508 400.32 146.652C397.979 163.594 398.051 179.989 402.715 196.596L402.464 196.73C397.976 180.392 396.85 163.304 399.172 146.497C401.7 128.194 408.256 110.674 418.371 95.1902C428.486 79.7061 441.91 66.6392 457.687 56.9239C473.464 47.2086 491.203 41.0849 509.636 38.9912C528.07 36.8974 546.743 38.8855 564.321 44.8132C581.898 50.7409 597.946 60.4617 611.318 73.2801C624.69 86.0985 635.055 101.698 641.675 118.964Z" stroke="#352D1F" stroke-width="7.50264"/>
<mask id="path-7-inside-1_5_128" fill="white">
<path d="M417.942 238.154C431.535 257.342 450.12 272.478 471.7 281.935C493.28 291.392 517.039 294.813 540.424 291.831C563.809 288.849 585.937 279.576 604.429 265.009C622.921 250.441 637.079 231.13 645.382 209.15L637.275 206.112C629.527 226.625 616.314 244.647 599.057 258.242C581.799 271.837 561.149 280.491 539.324 283.274C517.5 286.057 495.327 282.864 475.188 274.038C455.049 265.212 437.704 251.087 425.018 233.18L417.942 238.154Z"/>
</mask>
<path d="M417.942 238.154C431.535 257.342 450.12 272.478 471.7 281.935C493.28 291.392 517.039 294.813 540.424 291.831C563.809 288.849 585.937 279.576 604.429 265.009C622.921 250.441 637.079 231.13 645.382 209.15L637.275 206.112C629.527 226.625 616.314 244.647 599.057 258.242C581.799 271.837 561.149 280.491 539.324 283.274C517.5 286.057 495.327 282.864 475.188 274.038C455.049 265.212 437.704 251.087 425.018 233.18L417.942 238.154Z" stroke="#352D1F" stroke-width="15.0053" mask="url(#path-7-inside-1_5_128)"/>
<path d="M404.115 196.054L456.49 141.728L522.03 230.979L560.193 184.7L585.911 219.409" stroke="#352D1F" stroke-width="7.50264"/>
<path d="M642.27 211.278L561.715 93.9183L524.473 133.268" stroke="#352D1F" stroke-width="7.50264"/>
<path d="M537.262 144.058L509.16 118.448L483.451 124.999L530.087 166.094L537.262 144.058Z" fill="#352D1F"/>
<path d="M321.064 381.265L304.872 332.865H304.52L303.904 330.313L308.128 315.177H310.768L332.856 381.265H321.064ZM277.592 382.585V380.385H298.712V382.585H277.592ZM294.752 361.817V359.617H323.264V361.817H294.752ZM310.504 382.585V380.385H340.688V382.585H310.504ZM285.16 381.265L308.128 315.177H310.768L305.4 330.313L288.064 381.265H285.16ZM370.933 383.641C366.24 383.641 362.133 382.996 358.613 381.705C355.152 380.356 352.453 378.332 350.517 375.633C348.64 372.934 347.701 369.532 347.701 365.425V318.433H337.405V316.233H367.853V318.433H359.493V365.337C359.493 370.793 360.755 374.694 363.277 377.041C365.8 379.388 369.261 380.561 373.661 380.561C378.355 380.561 382.08 379.3 384.837 376.777C387.595 374.254 388.973 370.441 388.973 365.337V318.433H379.733V316.233H401.117V318.433H391.877V365.337C391.877 371.614 390.117 376.249 386.597 379.241C383.136 382.174 377.915 383.641 370.933 383.641ZM423.408 348.529V345.889H430.712C434.232 345.889 437.077 345.508 439.248 344.745C441.477 343.982 443.091 342.545 444.088 340.433C445.144 338.262 445.672 335.153 445.672 331.105C445.672 327.526 445.291 324.857 444.528 323.097C443.765 321.278 442.592 320.046 441.008 319.401C439.483 318.756 437.517 318.433 435.112 318.433H404.664V316.233H438.632C442.445 316.233 445.907 316.849 449.016 318.081C452.184 319.254 454.677 320.956 456.496 323.185C458.373 325.414 459.312 328.142 459.312 331.369C459.312 334.772 458.168 337.764 455.88 340.345C453.592 342.926 450.307 344.95 446.024 346.417C441.8 347.825 436.696 348.529 430.712 348.529H423.408ZM404.664 382.585V380.385H437.576V382.585H404.664ZM414.344 381.265V316.233H426.136V381.265H414.344ZM459.312 382.585C456.437 382.585 453.827 382.028 451.48 380.913C449.192 379.798 447.373 378.244 446.024 376.249C444.675 374.196 443.941 371.82 443.824 369.121L443.56 362.169C443.384 357.534 442.181 354.102 439.952 351.873C437.723 349.644 434.877 348.529 431.416 348.529L438.104 347.561H441.36V347.913C443.883 348.5 446.288 349.644 448.576 351.345C450.923 353.046 452.859 355.1 454.384 357.505C455.909 359.91 456.672 362.521 456.672 365.337V369.913C456.672 373.961 457.112 376.718 457.992 378.185C458.872 379.652 460.456 380.385 462.744 380.385H466.088V382.585H459.312ZM506.813 381.265L490.621 332.865H490.269L489.653 330.313L493.877 315.177H496.517L518.605 381.265H506.813ZM463.341 382.585V380.385H484.461V382.585H463.341ZM480.501 361.817V359.617H509.013V361.817H480.501ZM496.253 382.585V380.385H526.437V382.585H496.253ZM470.909 381.265L493.877 315.177H496.517L491.149 330.313L473.813 381.265H470.909ZM579.813 383.641L541.445 322.481H541.093V380.385H550.773V382.585H527.981V380.385H537.661V318.433H527.981V316.233H551.829L578.757 359.001H579.109V318.433H570.309V316.233H591.341V318.433H582.541V383.641H579.813ZM594.785 382.585V380.385H633.329C636.263 380.385 638.727 379.534 640.721 377.833C642.775 376.132 644.359 373.873 645.473 371.057C646.588 368.241 647.175 365.19 647.233 361.905H650.313V382.585H594.785ZM605.169 381.265V317.113H616.961V381.265H605.169ZM630.601 363.577C630.543 360.292 630.103 357.71 629.281 355.833C628.46 353.956 627.052 352.636 625.057 351.873C623.121 351.052 620.335 350.641 616.697 350.641V348.441C620.335 348.441 623.151 348.089 625.145 347.385C627.199 346.681 628.607 345.449 629.369 343.689C630.191 341.929 630.601 339.465 630.601 336.297H633.681V363.577H630.601ZM644.593 334.273C644.535 331.398 643.948 328.788 642.833 326.441C641.719 324.036 640.135 322.1 638.081 320.633C636.087 319.166 633.623 318.433 630.689 318.433H594.785V316.233H647.673V334.273H644.593ZM682.276 383.641C679.108 383.641 676.38 383.201 674.092 382.321C671.863 381.441 669.663 380.15 667.492 378.449L664.324 382.585H662.124V364.105H664.412C665.116 366.921 666.202 369.62 667.668 372.201C669.135 374.724 671.1 376.806 673.564 378.449C676.087 380.092 679.226 380.913 682.98 380.913C686.324 380.913 689.082 380.297 691.252 379.065C693.482 377.774 695.124 376.161 696.18 374.225C697.295 372.23 697.852 370.177 697.852 368.065C697.852 366.188 697.442 364.545 696.62 363.137C695.858 361.729 694.714 360.526 693.188 359.529C691.663 358.473 689.874 357.564 687.82 356.801C685.767 356.038 683.45 355.364 680.868 354.777C676.644 353.78 673.183 352.372 670.484 350.553C667.844 348.734 665.879 346.534 664.588 343.953C663.298 341.313 662.652 338.262 662.652 334.801C662.652 330.518 663.591 326.94 665.468 324.065C667.346 321.132 669.81 318.932 672.86 317.465C675.911 315.94 679.167 315.177 682.628 315.177C685.444 315.177 687.879 315.588 689.932 316.409C692.044 317.172 694.186 318.404 696.356 320.105L698.644 316.233H700.844V334.185L698.644 334.273C697.236 328.7 695.154 324.564 692.397 321.865C689.639 319.166 686.266 317.817 682.276 317.817C679.871 317.817 677.612 318.316 675.5 319.313C673.447 320.31 671.804 321.66 670.572 323.361C669.34 325.004 668.724 326.91 668.724 329.081C668.724 330.9 669.106 332.425 669.868 333.657C670.631 334.83 671.716 335.828 673.124 336.649C674.532 337.47 676.175 338.174 678.052 338.761C679.988 339.348 682.1 339.964 684.388 340.609C688.612 341.724 692.132 343.19 694.948 345.009C697.764 346.769 699.876 349.057 701.284 351.873C702.751 354.63 703.485 358.062 703.485 362.169C703.485 368.798 701.637 374.049 697.94 377.921C694.303 381.734 689.082 383.641 682.276 383.641ZM722.713 382.585V380.385H734.153V318.433H727.465C724.707 318.55 722.361 319.548 720.425 321.425C718.489 323.244 716.993 325.59 715.937 328.465C714.881 331.34 714.323 334.449 714.265 337.793H711.185V316.233H768.209V337.793H765.129C765.07 334.332 764.483 331.134 763.369 328.201C762.254 325.268 760.67 322.921 758.617 321.161C756.622 319.342 754.158 318.433 751.225 318.433H745.945V380.385H757.385V382.585H722.713Z" fill="white"/>
<path d="M356.976 415.356H365.104V456.585H356.976V438.562H341.309V456.585H333.181V415.356H341.309V430.434H356.976V415.356ZM392.498 457.351C389.71 457.351 387.089 456.801 384.635 455.702C382.181 454.583 380.021 453.041 378.156 451.078C376.291 449.115 374.828 446.847 373.768 444.275C372.708 441.684 372.178 438.916 372.178 435.971C372.178 433.026 372.708 430.267 373.768 427.696C374.828 425.104 376.291 422.827 378.156 420.863C380.021 418.9 382.181 417.369 384.635 416.269C387.089 415.15 389.71 414.591 392.498 414.591C395.305 414.591 397.936 415.15 400.39 416.269C402.844 417.369 405.004 418.9 406.869 420.863C408.734 422.827 410.187 425.104 411.227 427.696C412.288 430.267 412.818 433.026 412.818 435.971C412.818 438.916 412.288 441.684 411.227 444.275C410.187 446.847 408.734 449.115 406.869 451.078C405.004 453.041 402.844 454.583 400.39 455.702C397.936 456.801 395.305 457.351 392.498 457.351ZM392.498 449.223C394.167 449.223 395.737 448.879 397.21 448.192C398.682 447.485 399.978 446.523 401.097 445.306C402.216 444.089 403.09 442.685 403.718 441.095C404.366 439.505 404.69 437.797 404.69 435.971C404.69 434.145 404.366 432.437 403.718 430.847C403.09 429.237 402.216 427.833 401.097 426.635C399.978 425.418 398.682 424.466 397.21 423.779C395.737 423.072 394.167 422.719 392.498 422.719C390.829 422.719 389.258 423.072 387.786 423.779C386.314 424.466 385.018 425.418 383.899 426.635C382.78 427.853 381.896 429.256 381.248 430.847C380.62 432.437 380.306 434.145 380.306 435.971C380.306 437.797 380.62 439.514 381.248 441.124C381.896 442.715 382.78 444.118 383.899 445.336C385.018 446.533 386.314 447.485 387.786 448.192C389.258 448.879 390.829 449.223 392.498 449.223ZM417.5 456.585L425.51 415.356H432.371L441.942 440.594L451.543 415.356H458.404L466.414 456.585H458.11L453.545 432.938L444.74 456.173H439.145L430.369 432.938L425.775 456.585H417.5ZM473.492 456.585V415.356H499.584V423.484H481.62V430.434H495.638V438.562H481.62V448.457H499.584V456.585H473.492ZM522.552 456.585V415.356H530.68V448.457H547.289V456.585H522.552ZM555.846 456.585V415.356H563.974V456.585H555.846ZM587.358 456.585L572.398 415.356H581.027L592.6 447.191L604.174 415.356H612.773L597.813 456.585H587.358ZM620.148 456.585V415.356H628.276V456.585H620.148ZM637.41 456.585V415.356H646.186L662.265 441.89V415.356H670.393V456.585H661.617L645.538 430.051V456.585H637.41ZM697.703 457.351C694.837 457.351 692.167 456.791 689.693 455.672C687.239 454.553 685.089 453.012 683.244 451.049C681.418 449.066 679.995 446.779 678.974 444.187C677.953 441.596 677.442 438.837 677.442 435.912C677.442 432.771 678.002 429.904 679.121 427.313C680.24 424.721 681.762 422.483 683.686 420.598C685.61 418.694 687.789 417.231 690.223 416.21C692.677 415.17 695.23 414.65 697.88 414.65C700.786 414.65 703.632 415.327 706.42 416.682C709.208 418.036 711.701 420.186 713.9 423.131L706.656 427.018C705.399 425.565 703.996 424.486 702.445 423.779C700.913 423.072 699.353 422.719 697.762 422.719C696.172 422.719 694.641 423.043 693.168 423.691C691.715 424.338 690.42 425.261 689.281 426.459C688.142 427.656 687.239 429.07 686.572 430.699C685.904 432.329 685.57 434.125 685.57 436.089C685.57 437.914 685.884 439.622 686.513 441.213C687.161 442.803 688.044 444.197 689.163 445.394C690.282 446.592 691.578 447.534 693.05 448.222C694.543 448.889 696.133 449.223 697.821 449.223C698.862 449.223 699.883 449.076 700.884 448.781C701.905 448.467 702.877 448.015 703.799 447.426C704.722 446.837 705.566 446.101 706.332 445.218C707.117 444.334 707.804 443.313 708.393 442.155H702.003V435.087H717.964C718.082 438.13 717.64 440.997 716.639 443.686C715.638 446.376 714.205 448.752 712.34 450.813C710.474 452.855 708.295 454.455 705.802 455.613C703.308 456.772 700.609 457.351 697.703 457.351Z" fill="#352D1F"/>
</g>
<path d="M34.6666 567.494C31.5995 567.494 29.0966 567.01 27.158 566.04C25.2193 565.071 24.25 563.82 24.25 562.286C24.25 561.592 24.4597 560.948 24.8793 560.355C25.2989 559.761 25.8848 559.248 26.6371 558.814L29.3715 561.375C29.1111 561.49 28.829 561.621 28.5251 561.765C28.2213 561.91 27.9826 562.084 27.809 562.286C28.1852 562.749 29.0532 563.154 30.4132 563.501C31.7731 563.849 33.1909 564.022 34.6666 564.022C36.1423 564.022 37.5674 563.849 38.9418 563.501C40.3162 563.154 41.1915 562.749 41.5677 562.286C41.3651 562.055 41.1047 561.867 40.7864 561.722C40.4681 561.577 40.1643 561.447 39.875 561.331L42.5659 558.727C43.3761 559.19 43.9982 559.718 44.4323 560.311C44.8663 560.904 45.0833 561.563 45.0833 562.286C45.0833 563.82 44.114 565.071 42.1753 566.04C40.2367 567.01 37.7338 567.494 34.6666 567.494ZM34.71 557.946C37.5746 555.834 39.7303 553.714 41.177 551.587C42.6238 549.461 43.3472 547.327 43.3472 545.185C43.3472 542.234 42.4068 540.006 40.526 538.501C38.6452 536.997 36.6921 536.244 34.6666 536.244C32.6412 536.244 30.688 536.997 28.8073 538.501C26.9265 540.006 25.9861 542.234 25.9861 545.185C25.9861 547.124 26.695 549.142 28.1128 551.24C29.5306 553.338 31.7297 555.573 34.71 557.946ZM34.6666 562.286C30.5868 559.277 27.5413 556.354 25.5303 553.519C23.5194 550.683 22.5139 547.905 22.5139 545.185C22.5139 543.131 22.8828 541.33 23.6206 539.782C24.3585 538.234 25.3061 536.939 26.4635 535.897C27.6209 534.856 28.923 534.074 30.3698 533.553C31.8165 533.033 33.2488 532.772 34.6666 532.772C36.0845 532.772 37.5167 533.033 38.9635 533.553C40.4103 534.074 41.7123 534.856 42.8698 535.897C44.0272 536.939 44.9748 538.234 45.7126 539.782C46.4505 541.33 46.8194 543.131 46.8194 545.185C46.8194 547.905 45.8139 550.683 43.8029 553.519C41.7919 556.354 38.7465 559.277 34.6666 562.286ZM34.6666 548.397C35.6215 548.397 36.4389 548.057 37.1189 547.377C37.7989 546.697 38.1389 545.88 38.1389 544.925C38.1389 543.97 37.7989 543.153 37.1189 542.473C36.4389 541.793 35.6215 541.453 34.6666 541.453C33.7118 541.453 32.8944 541.793 32.2144 542.473C31.5344 543.153 31.1944 543.97 31.1944 544.925C31.1944 545.88 31.5344 546.697 32.2144 547.377C32.8944 548.057 33.7118 548.397 34.6666 548.397Z" fill="white"/>
<path d="M73.1416 558.455C71.9696 558.455 70.8677 558.224 69.8359 557.762C68.8042 557.291 67.8962 556.643 67.1121 555.818C66.328 554.993 65.7131 554.039 65.2674 552.958C64.8216 551.869 64.5988 550.705 64.5988 549.467C64.5988 548.229 64.8216 547.069 65.2674 545.988C65.7131 544.898 66.328 543.941 67.1121 543.115C67.8962 542.29 68.8042 541.646 69.8359 541.184C70.8677 540.713 71.9696 540.478 73.1416 540.478C74.322 540.478 75.428 540.713 76.4597 541.184C77.4915 541.646 78.3994 542.29 79.1835 543.115C79.9677 543.941 80.5785 544.898 81.0159 545.988C81.4616 547.069 81.6845 548.229 81.6845 549.467C81.6845 550.705 81.4616 551.869 81.0159 552.958C80.5785 554.039 79.9677 554.993 79.1835 555.818C78.3994 556.643 77.4915 557.291 76.4597 557.762C75.428 558.224 74.322 558.455 73.1416 558.455ZM73.1416 555.038C73.8432 555.038 74.5035 554.894 75.1226 554.605C75.7416 554.308 76.2864 553.903 76.7569 553.391C77.2274 552.88 77.5947 552.289 77.8588 551.621C78.1312 550.952 78.2674 550.234 78.2674 549.467C78.2674 548.699 78.1312 547.981 77.8588 547.312C77.5947 546.635 77.2274 546.045 76.7569 545.542C76.2864 545.03 75.7416 544.63 75.1226 544.341C74.5035 544.044 73.8432 543.895 73.1416 543.895C72.4401 543.895 71.7797 544.044 71.1607 544.341C70.5416 544.63 69.9969 545.03 69.5264 545.542C69.0559 546.054 68.6845 546.644 68.4121 547.312C68.148 547.981 68.0159 548.699 68.0159 549.467C68.0159 550.234 68.148 550.956 68.4121 551.633C68.6845 552.302 69.0559 552.892 69.5264 553.404C69.9969 553.907 70.5416 554.308 71.1607 554.605C71.7797 554.894 72.4401 555.038 73.1416 555.038ZM96.7682 550.259V558.133H93.351V551.2C93.351 550.762 93.2437 550.37 93.0291 550.024C92.8228 549.669 92.5421 549.388 92.1872 549.182C91.8406 548.975 91.4526 548.872 91.0234 548.872C90.5942 548.872 90.2021 548.975 89.8472 549.182C89.4923 549.388 89.2117 549.669 89.0053 550.024C88.799 550.37 88.6958 550.762 88.6958 551.2V558.133H85.2787L85.2663 545.752H88.6834L88.6958 546.669C89.1085 546.272 89.5913 545.963 90.1444 545.74C90.7056 545.517 91.2958 545.406 91.9148 545.406C92.8145 545.406 93.6275 545.624 94.3539 546.062C95.0885 546.499 95.6745 547.085 96.112 547.82C96.5494 548.546 96.7682 549.359 96.7682 550.259ZM114.403 549.169H112.175V558.133H108.758V549.169H107.049V545.752H108.758V541.865H112.175V545.752H114.403V549.169ZM129.379 550.259V558.133H125.962V551.2C125.962 550.762 125.855 550.37 125.64 550.024C125.434 549.669 125.153 549.388 124.798 549.182C124.452 548.975 124.064 548.872 123.635 548.872C123.205 548.872 122.813 548.975 122.458 549.182C122.104 549.388 121.823 549.669 121.617 550.024C121.41 550.37 121.307 550.762 121.307 551.2V558.133H117.89L117.878 539.562H121.295L121.307 546.669C121.72 546.272 122.203 545.963 122.756 545.74C123.317 545.517 123.907 545.406 124.526 545.406C125.426 545.406 126.239 545.624 126.965 546.062C127.7 546.499 128.286 547.085 128.723 547.82C129.161 548.546 129.379 549.359 129.379 550.259ZM138.298 558.455C137.159 558.455 136.119 558.162 135.178 557.576C134.246 556.99 133.499 556.202 132.937 555.211C132.384 554.221 132.108 553.127 132.108 551.93C132.108 551.031 132.269 550.189 132.591 549.405C132.913 548.612 133.354 547.919 133.915 547.325C134.485 546.722 135.145 546.252 135.896 545.913C136.648 545.575 137.448 545.406 138.298 545.406C139.281 545.406 140.176 545.616 140.985 546.037C141.802 546.458 142.491 547.032 143.053 547.758C143.622 548.484 144.027 549.306 144.266 550.222C144.514 551.138 144.555 552.091 144.39 553.082H135.797C135.905 553.445 136.07 553.775 136.293 554.072C136.524 554.361 136.804 554.592 137.135 554.766C137.473 554.939 137.861 555.03 138.298 555.038C138.728 555.046 139.124 554.947 139.487 554.741C139.85 554.535 140.16 554.258 140.415 553.911L143.907 554.716C143.403 555.814 142.652 556.714 141.654 557.415C140.655 558.109 139.536 558.455 138.298 558.455ZM135.674 550.556H140.935C140.828 550.143 140.647 549.772 140.391 549.442C140.135 549.112 139.825 548.852 139.462 548.662C139.107 548.472 138.719 548.377 138.298 548.377C137.886 548.377 137.498 548.472 137.135 548.662C136.78 548.852 136.474 549.112 136.218 549.442C135.971 549.764 135.789 550.135 135.674 550.556ZM155.144 558.133L155.132 545.752H158.549L158.561 546.669C158.974 546.272 159.457 545.963 160.01 545.74C160.571 545.517 161.161 545.406 161.78 545.406C162.234 545.406 162.688 545.472 163.142 545.604L161.793 549.058C161.495 548.934 161.194 548.872 160.889 548.872C160.46 548.872 160.067 548.975 159.713 549.182C159.358 549.388 159.077 549.669 158.871 550.024C158.664 550.37 158.561 550.762 158.561 551.2V558.133H155.144ZM170.595 558.455C169.456 558.455 168.416 558.162 167.475 557.576C166.543 556.99 165.796 556.206 165.234 555.224C164.681 554.233 164.405 553.14 164.405 551.943C164.405 551.035 164.566 550.189 164.888 549.405C165.209 548.612 165.651 547.919 166.212 547.325C166.782 546.722 167.442 546.252 168.193 545.913C168.944 545.575 169.745 545.406 170.595 545.406C171.734 545.406 172.77 545.699 173.703 546.285C174.644 546.871 175.391 547.659 175.944 548.649C176.505 549.64 176.786 550.738 176.786 551.943C176.786 552.842 176.625 553.684 176.303 554.469C175.981 555.253 175.535 555.946 174.966 556.549C174.404 557.143 173.748 557.609 172.997 557.948C172.254 558.286 171.454 558.455 170.595 558.455ZM170.595 555.038C171.123 555.038 171.598 554.898 172.019 554.617C172.44 554.328 172.77 553.949 173.01 553.478C173.249 553.008 173.369 552.496 173.369 551.943C173.369 551.373 173.241 550.853 172.985 550.383C172.737 549.904 172.403 549.524 171.982 549.244C171.561 548.963 171.099 548.823 170.595 548.823C170.075 548.823 169.605 548.967 169.184 549.256C168.763 549.545 168.429 549.925 168.181 550.395C167.942 550.866 167.822 551.382 167.822 551.943C167.822 552.529 167.946 553.057 168.193 553.528C168.449 553.99 168.788 554.357 169.209 554.629C169.629 554.902 170.092 555.038 170.595 555.038ZM189.088 545.752H192.505V558.133H189.075L188.914 556.846C188.592 557.324 188.18 557.712 187.676 558.009C187.173 558.307 186.582 558.455 185.906 558.455C184.981 558.455 184.119 558.282 183.318 557.935C182.517 557.589 181.812 557.11 181.201 556.499C180.59 555.888 180.111 555.182 179.765 554.382C179.426 553.573 179.257 552.706 179.257 551.782C179.257 550.899 179.418 550.073 179.74 549.306C180.062 548.538 180.516 547.861 181.102 547.275C181.688 546.689 182.361 546.231 183.12 545.901C183.888 545.571 184.713 545.406 185.596 545.406C186.355 545.406 187.036 545.567 187.639 545.889C188.25 546.21 188.782 546.619 189.236 547.114L189.088 545.752ZM185.819 555.174C186.38 555.174 186.888 555.03 187.342 554.741C187.796 554.452 188.155 554.064 188.419 553.577C188.683 553.082 188.815 552.537 188.815 551.943C188.815 551.34 188.683 550.795 188.419 550.309C188.155 549.822 187.796 549.434 187.342 549.145C186.888 548.856 186.38 548.711 185.819 548.711C185.249 548.711 184.734 548.856 184.271 549.145C183.809 549.434 183.442 549.826 183.169 550.321C182.897 550.808 182.761 551.349 182.761 551.943C182.761 552.537 182.897 553.082 183.169 553.577C183.45 554.064 183.821 554.452 184.284 554.741C184.746 555.03 185.258 555.174 185.819 555.174ZM205.089 539.562H208.506V558.133H205.089V556.821C204.709 557.3 204.239 557.692 203.677 557.997C203.116 558.302 202.476 558.455 201.758 558.455C200.859 558.455 200.017 558.286 199.233 557.948C198.448 557.609 197.755 557.143 197.153 556.549C196.558 555.946 196.092 555.253 195.754 554.469C195.415 553.684 195.246 552.842 195.246 551.943C195.246 551.043 195.415 550.201 195.754 549.417C196.092 548.633 196.558 547.944 197.153 547.349C197.755 546.747 198.448 546.276 199.233 545.938C200.017 545.6 200.859 545.43 201.758 545.43C202.476 545.43 203.116 545.583 203.677 545.889C204.239 546.186 204.709 546.578 205.089 547.065V539.562ZM201.808 555.174C202.369 555.174 202.877 555.03 203.331 554.741C203.785 554.452 204.144 554.064 204.408 553.577C204.672 553.082 204.804 552.537 204.804 551.943C204.804 551.34 204.672 550.795 204.408 550.309C204.144 549.822 203.785 549.434 203.331 549.145C202.877 548.856 202.369 548.711 201.808 548.711C201.238 548.711 200.722 548.856 200.26 549.145C199.798 549.434 199.431 549.826 199.158 550.321C198.886 550.808 198.75 551.349 198.75 551.943C198.75 552.537 198.886 553.082 199.158 553.577C199.439 554.064 199.81 554.452 200.273 554.741C200.735 555.03 201.247 555.174 201.808 555.174ZM225.362 558.455C224.223 558.455 223.183 558.162 222.242 557.576C221.309 556.99 220.562 556.206 220.001 555.224C219.448 554.233 219.171 553.14 219.171 551.943C219.171 551.035 219.332 550.189 219.654 549.405C219.976 548.612 220.417 547.919 220.979 547.325C221.548 546.722 222.209 546.252 222.96 545.913C223.711 545.575 224.511 545.406 225.362 545.406C226.501 545.406 227.537 545.699 228.469 546.285C229.41 546.871 230.157 547.659 230.71 548.649C231.271 549.64 231.552 550.738 231.552 551.943C231.552 552.842 231.391 553.684 231.069 554.469C230.747 555.253 230.302 555.946 229.732 556.549C229.171 557.143 228.515 557.609 227.763 557.948C227.021 558.286 226.22 558.455 225.362 558.455ZM225.362 555.038C225.89 555.038 226.364 554.898 226.785 554.617C227.206 554.328 227.537 553.949 227.776 553.478C228.015 553.008 228.135 552.496 228.135 551.943C228.135 551.373 228.007 550.853 227.751 550.383C227.503 549.904 227.169 549.524 226.748 549.244C226.327 548.963 225.865 548.823 225.362 548.823C224.842 548.823 224.371 548.967 223.95 549.256C223.529 549.545 223.195 549.925 222.947 550.395C222.708 550.866 222.588 551.382 222.588 551.943C222.588 552.529 222.712 553.057 222.96 553.528C223.216 553.99 223.554 554.357 223.975 554.629C224.396 554.902 224.858 555.038 225.362 555.038ZM238.797 543.35V545.752H242.078V549.169H238.797V558.133H235.38V549.169H234.141V545.752H235.38V543.35C235.38 542.599 235.565 541.918 235.937 541.308C236.308 540.689 236.803 540.193 237.422 539.822C238.05 539.45 238.739 539.265 239.49 539.265C240.043 539.265 240.588 539.38 241.124 539.611C241.661 539.834 242.14 540.185 242.56 540.664L240.109 543.078C240.051 542.946 239.965 542.847 239.849 542.781C239.733 542.715 239.614 542.682 239.49 542.682C239.3 542.682 239.135 542.748 238.995 542.88C238.863 543.004 238.797 543.161 238.797 543.35ZM260.717 558.455C259.512 558.455 258.39 558.22 257.35 557.749C256.318 557.279 255.414 556.631 254.638 555.806C253.871 554.972 253.272 554.01 252.843 552.921C252.414 551.831 252.199 550.672 252.199 549.442C252.199 548.121 252.434 546.916 252.905 545.827C253.375 544.737 254.015 543.796 254.824 543.004C255.633 542.203 256.549 541.588 257.573 541.159C258.604 540.722 259.677 540.503 260.792 540.503C262.013 540.503 263.21 540.788 264.382 541.357C265.554 541.927 266.602 542.83 267.527 544.069L264.481 545.703C263.953 545.092 263.363 544.638 262.711 544.341C262.067 544.044 261.411 543.895 260.742 543.895C260.074 543.895 259.43 544.031 258.811 544.304C258.2 544.576 257.655 544.964 257.176 545.468C256.698 545.971 256.318 546.565 256.037 547.25C255.757 547.935 255.616 548.691 255.616 549.516C255.616 550.284 255.748 551.002 256.013 551.67C256.285 552.339 256.656 552.925 257.127 553.429C257.597 553.932 258.142 554.328 258.761 554.617C259.388 554.898 260.057 555.038 260.767 555.038C261.204 555.038 261.634 554.976 262.054 554.852C262.484 554.72 262.892 554.53 263.28 554.283C263.668 554.035 264.023 553.726 264.345 553.354C264.675 552.983 264.964 552.554 265.212 552.067H262.525V549.095H269.235C269.285 550.375 269.099 551.58 268.678 552.71C268.257 553.841 267.655 554.84 266.871 555.707C266.087 556.565 265.17 557.238 264.122 557.725C263.074 558.212 261.939 558.455 260.717 558.455ZM272.722 545.752H276.139V558.133H272.722V545.752ZM274.455 544.329C273.96 544.329 273.543 544.163 273.204 543.833C272.866 543.503 272.697 543.095 272.697 542.608C272.697 542.121 272.866 541.712 273.204 541.382C273.543 541.052 273.956 540.887 274.443 540.887C274.93 540.887 275.338 541.052 275.668 541.382C276.007 541.712 276.176 542.121 276.176 542.608C276.176 543.095 276.011 543.503 275.681 543.833C275.359 544.163 274.95 544.329 274.455 544.329ZM280.235 558.133L280.223 545.752H283.64L283.652 546.669C284.065 546.272 284.548 545.963 285.101 545.74C285.662 545.517 286.252 545.406 286.871 545.406C287.325 545.406 287.779 545.472 288.233 545.604L286.884 549.058C286.587 548.934 286.285 548.872 285.98 548.872C285.551 548.872 285.159 548.975 284.804 549.182C284.449 549.388 284.168 549.669 283.962 550.024C283.755 550.37 283.652 550.762 283.652 551.2V558.133H280.235ZM290.747 545.752H294.164V558.133H290.747V545.752ZM292.48 544.329C291.985 544.329 291.568 544.163 291.229 543.833C290.891 543.503 290.722 543.095 290.722 542.608C290.722 542.121 290.891 541.712 291.229 541.382C291.568 541.052 291.981 540.887 292.468 540.887C292.955 540.887 293.363 541.052 293.693 541.382C294.032 541.712 294.201 542.121 294.201 542.608C294.201 543.095 294.036 543.503 293.706 543.833C293.384 544.163 292.975 544.329 292.48 544.329ZM305.555 558.133V540.8H311.944C312.893 540.8 313.747 541.039 314.507 541.518C315.274 541.997 315.885 542.636 316.339 543.437C316.793 544.229 317.02 545.104 317.02 546.062C317.02 547.036 316.789 547.923 316.327 548.724C315.865 549.516 315.245 550.148 314.47 550.618C313.702 551.089 312.86 551.324 311.944 551.324H308.972V558.133H305.555ZM308.972 547.907H311.56C311.94 547.907 312.282 547.816 312.588 547.634C312.893 547.444 313.137 547.193 313.318 546.879C313.508 546.557 313.603 546.202 313.603 545.814C313.603 545.435 313.508 545.088 313.318 544.774C313.137 544.452 312.893 544.196 312.588 544.007C312.282 543.817 311.94 543.722 311.56 543.722H308.972V547.907ZM320.106 558.133L320.093 545.752H323.51L323.523 546.669C323.936 546.272 324.418 545.963 324.971 545.74C325.533 545.517 326.123 545.406 326.742 545.406C327.196 545.406 327.65 545.472 328.104 545.604L326.754 549.058C326.457 548.934 326.156 548.872 325.85 548.872C325.421 548.872 325.029 548.975 324.674 549.182C324.319 549.388 324.039 549.669 323.832 550.024C323.626 550.37 323.523 550.762 323.523 551.2V558.133H320.106ZM339.197 545.752H342.614V558.133H339.185L339.024 556.846C338.702 557.324 338.289 557.712 337.785 558.009C337.282 558.307 336.692 558.455 336.015 558.455C335.091 558.455 334.228 558.282 333.427 557.935C332.627 557.589 331.921 557.11 331.31 556.499C330.699 555.888 330.221 555.182 329.874 554.382C329.536 553.573 329.366 552.706 329.366 551.782C329.366 550.899 329.527 550.073 329.849 549.306C330.171 548.538 330.625 547.861 331.211 547.275C331.797 546.689 332.47 546.231 333.229 545.901C333.997 545.571 334.822 545.406 335.705 545.406C336.465 545.406 337.146 545.567 337.748 545.889C338.359 546.21 338.892 546.619 339.345 547.114L339.197 545.752ZM335.928 555.174C336.49 555.174 336.997 555.03 337.451 554.741C337.905 554.452 338.264 554.064 338.528 553.577C338.792 553.082 338.925 552.537 338.925 551.943C338.925 551.34 338.792 550.795 338.528 550.309C338.264 549.822 337.905 549.434 337.451 549.145C336.997 548.856 336.49 548.711 335.928 548.711C335.359 548.711 334.843 548.856 334.381 549.145C333.918 549.434 333.551 549.826 333.279 550.321C333.006 550.808 332.87 551.349 332.87 551.943C332.87 552.537 333.006 553.082 333.279 553.577C333.559 554.064 333.931 554.452 334.393 554.741C334.855 555.03 335.367 555.174 335.928 555.174ZM355.198 539.562H358.615V558.133H355.198V556.821C354.818 557.3 354.348 557.692 353.787 557.997C353.225 558.302 352.586 558.455 351.868 558.455C350.968 558.455 350.126 558.286 349.342 557.948C348.558 557.609 347.864 557.143 347.262 556.549C346.668 555.946 346.201 555.253 345.863 554.469C345.524 553.684 345.355 552.842 345.355 551.943C345.355 551.043 345.524 550.201 345.863 549.417C346.201 548.633 346.668 547.944 347.262 547.349C347.864 546.747 348.558 546.276 349.342 545.938C350.126 545.6 350.968 545.43 351.868 545.43C352.586 545.43 353.225 545.583 353.787 545.889C354.348 546.186 354.818 546.578 355.198 547.065V539.562ZM351.917 555.174C352.478 555.174 352.986 555.03 353.44 554.741C353.894 554.452 354.253 554.064 354.517 553.577C354.781 553.082 354.913 552.537 354.913 551.943C354.913 551.34 354.781 550.795 354.517 550.309C354.253 549.822 353.894 549.434 353.44 549.145C352.986 548.856 352.478 548.711 351.917 548.711C351.348 548.711 350.832 548.856 350.37 549.145C349.907 549.434 349.54 549.826 349.268 550.321C348.995 550.808 348.859 551.349 348.859 551.943C348.859 552.537 348.995 553.082 349.268 553.577C349.548 554.064 349.92 554.452 350.382 554.741C350.844 555.03 351.356 555.174 351.917 555.174ZM371.682 545.752H375.1V558.133H371.67L371.509 556.846C371.187 557.324 370.774 557.712 370.271 558.009C369.767 558.307 369.177 558.455 368.5 558.455C367.576 558.455 366.714 558.282 365.913 557.935C365.112 557.589 364.407 557.11 363.796 556.499C363.185 555.888 362.706 555.182 362.36 554.382C362.021 553.573 361.852 552.706 361.852 551.782C361.852 550.899 362.013 550.073 362.335 549.306C362.657 548.538 363.111 547.861 363.697 547.275C364.283 546.689 364.955 546.231 365.715 545.901C366.482 545.571 367.308 545.406 368.191 545.406C368.95 545.406 369.631 545.567 370.234 545.889C370.845 546.21 371.377 546.619 371.831 547.114L371.682 545.752ZM368.414 555.174C368.975 555.174 369.483 555.03 369.937 554.741C370.391 554.452 370.75 554.064 371.014 553.577C371.278 553.082 371.41 552.537 371.41 551.943C371.41 551.34 371.278 550.795 371.014 550.309C370.75 549.822 370.391 549.434 369.937 549.145C369.483 548.856 368.975 548.711 368.414 548.711C367.844 548.711 367.328 548.856 366.866 549.145C366.404 549.434 366.037 549.826 365.764 550.321C365.492 550.808 365.356 551.349 365.356 551.943C365.356 552.537 365.492 553.082 365.764 553.577C366.045 554.064 366.416 554.452 366.879 554.741C367.341 555.03 367.853 555.174 368.414 555.174ZM390.339 558.133H386.402L383.777 553.614L382.267 555.409V558.133H378.85V539.562H382.267V550.098L385.907 545.752H390.364L386.117 550.841L390.339 558.133ZM396.7 558.356C396.065 558.307 395.454 558.175 394.868 557.96C394.282 557.737 393.758 557.44 393.295 557.069C392.842 556.689 392.487 556.235 392.231 555.707L395.103 554.469C395.194 554.601 395.33 554.745 395.512 554.902C395.693 555.05 395.912 555.182 396.168 555.298C396.432 555.414 396.737 555.471 397.084 555.471C397.34 555.471 397.588 555.442 397.827 555.385C398.066 555.319 398.26 555.215 398.409 555.075C398.557 554.927 398.632 554.733 398.632 554.493C398.632 554.229 398.537 554.027 398.347 553.887C398.157 553.746 397.926 553.643 397.654 553.577C397.389 553.503 397.134 553.441 396.886 553.391C396.127 553.259 395.408 553.024 394.732 552.686C394.063 552.339 393.518 551.893 393.097 551.349C392.676 550.804 392.466 550.152 392.466 549.392C392.466 548.559 392.685 547.841 393.122 547.238C393.56 546.627 394.129 546.157 394.831 545.827C395.532 545.496 396.292 545.331 397.109 545.331C398.075 545.331 398.97 545.534 399.795 545.938C400.621 546.342 401.285 546.912 401.789 547.647L399.09 549.244C398.982 549.087 398.842 548.938 398.669 548.798C398.504 548.649 398.31 548.526 398.087 548.427C397.872 548.319 397.641 548.257 397.394 548.241C397.072 548.216 396.779 548.237 396.515 548.303C396.25 548.361 396.04 548.472 395.883 548.637C395.735 548.802 395.66 549.025 395.66 549.306C395.66 549.578 395.78 549.78 396.019 549.912C396.259 550.036 396.535 550.131 396.849 550.197C397.162 550.255 397.439 550.325 397.678 550.408C398.396 550.639 399.069 550.936 399.696 551.299C400.332 551.654 400.844 552.091 401.232 552.611C401.62 553.131 401.801 553.742 401.776 554.444C401.776 555.261 401.533 555.979 401.046 556.598C400.559 557.209 399.928 557.675 399.152 557.997C398.384 558.311 397.567 558.43 396.7 558.356ZM416.622 550.259V558.133H413.205V551.2C413.205 550.762 413.098 550.37 412.883 550.024C412.677 549.669 412.396 549.388 412.041 549.182C411.695 548.975 411.307 548.872 410.878 548.872C410.448 548.872 410.056 548.975 409.701 549.182C409.346 549.388 409.066 549.669 408.859 550.024C408.653 550.37 408.55 550.762 408.55 551.2V558.133H405.133L405.12 539.562H408.538L408.55 546.669C408.963 546.272 409.446 545.963 409.999 545.74C410.56 545.517 411.15 545.406 411.769 545.406C412.669 545.406 413.482 545.624 414.208 546.062C414.943 546.499 415.529 547.085 415.966 547.82C416.404 548.546 416.622 549.359 416.622 550.259ZM420.335 545.752H423.753V558.133H420.335V545.752ZM422.069 544.329C421.574 544.329 421.157 544.163 420.818 543.833C420.48 543.503 420.311 543.095 420.311 542.608C420.311 542.121 420.48 541.712 420.818 541.382C421.157 541.052 421.569 540.887 422.056 540.887C422.543 540.887 422.952 541.052 423.282 541.382C423.621 541.712 423.79 542.121 423.79 542.608C423.79 543.095 423.625 543.503 423.295 543.833C422.973 544.163 422.564 544.329 422.069 544.329ZM439.339 550.259V558.133H435.921V551.2C435.921 550.762 435.814 550.37 435.599 550.024C435.393 549.669 435.112 549.388 434.758 549.182C434.411 548.975 434.023 548.872 433.594 548.872C433.165 548.872 432.772 548.975 432.418 549.182C432.063 549.388 431.782 549.669 431.576 550.024C431.369 550.37 431.266 550.762 431.266 551.2V558.133H427.849L427.837 545.752H431.254L431.266 546.669C431.679 546.272 432.162 545.963 432.715 545.74C433.276 545.517 433.866 545.406 434.485 545.406C435.385 545.406 436.198 545.624 436.924 546.062C437.659 546.499 438.245 547.085 438.682 547.82C439.12 548.546 439.339 549.359 439.339 550.259ZM451.897 545.752H455.315V558.133H451.885L451.724 556.846C451.402 557.324 450.989 557.712 450.486 558.009C449.983 558.307 449.392 558.455 448.716 558.455C447.791 558.455 446.929 558.282 446.128 557.935C445.327 557.589 444.622 557.11 444.011 556.499C443.4 555.888 442.921 555.182 442.575 554.382C442.236 553.573 442.067 552.706 442.067 551.782C442.067 550.899 442.228 550.073 442.55 549.306C442.872 548.538 443.326 547.861 443.912 547.275C444.498 546.689 445.17 546.231 445.93 545.901C446.697 545.571 447.523 545.406 448.406 545.406C449.165 545.406 449.846 545.567 450.449 545.889C451.06 546.21 451.592 546.619 452.046 547.114L451.897 545.752ZM448.629 555.174C449.19 555.174 449.698 555.03 450.152 554.741C450.606 554.452 450.965 554.064 451.229 553.577C451.493 553.082 451.625 552.537 451.625 551.943C451.625 551.34 451.493 550.795 451.229 550.309C450.965 549.822 450.606 549.434 450.152 549.145C449.698 548.856 449.19 548.711 448.629 548.711C448.059 548.711 447.543 548.856 447.081 549.145C446.619 549.434 446.252 549.826 445.979 550.321C445.707 550.808 445.571 551.349 445.571 551.943C445.571 552.537 445.707 553.082 445.979 553.577C446.26 554.064 446.631 554.452 447.094 554.741C447.556 555.03 448.068 555.174 448.629 555.174ZM458.545 559.52L459.313 555.335H462.73L460.823 559.52H458.545ZM474.115 558.133V540.8H480.566C481.498 540.8 482.344 540.994 483.104 541.382C483.863 541.762 484.462 542.306 484.899 543.016C485.345 543.726 485.568 544.56 485.568 545.517C485.568 545.905 485.514 546.305 485.407 546.718C485.308 547.131 485.134 547.51 484.887 547.857C484.647 548.204 484.317 548.468 483.896 548.649C484.441 548.782 484.878 549.029 485.209 549.392C485.539 549.747 485.79 550.16 485.964 550.63C486.137 551.093 486.253 551.567 486.31 552.054C486.368 552.541 486.397 552.983 486.397 553.379C486.397 554.27 486.166 555.075 485.704 555.793C485.242 556.511 484.618 557.081 483.834 557.502C483.058 557.923 482.2 558.133 481.259 558.133H474.115ZM477.532 555.224H480.9C481.354 555.224 481.767 555.116 482.138 554.902C482.51 554.679 482.807 554.378 483.03 553.998C483.252 553.61 483.364 553.173 483.364 552.686C483.364 552.273 483.252 551.881 483.03 551.509C482.807 551.138 482.51 550.837 482.138 550.606C481.767 550.366 481.354 550.247 480.9 550.247H477.532V555.224ZM477.532 547.399H480.17C480.714 547.399 481.181 547.222 481.569 546.867C481.957 546.512 482.15 546.054 482.15 545.492C482.15 544.915 481.957 544.477 481.569 544.18C481.181 543.875 480.714 543.722 480.17 543.722H477.532V547.399ZM494.85 558.455C493.711 558.455 492.671 558.162 491.73 557.576C490.798 556.99 490.051 556.202 489.489 555.211C488.936 554.221 488.66 553.127 488.66 551.93C488.66 551.031 488.821 550.189 489.143 549.405C489.465 548.612 489.906 547.919 490.468 547.325C491.037 546.722 491.697 546.252 492.449 545.913C493.2 545.575 494 545.406 494.85 545.406C495.833 545.406 496.728 545.616 497.537 546.037C498.354 546.458 499.043 547.032 499.605 547.758C500.174 548.484 500.579 549.306 500.818 550.222C501.066 551.138 501.107 552.091 500.942 553.082H492.349C492.457 553.445 492.622 553.775 492.845 554.072C493.076 554.361 493.356 554.592 493.687 554.766C494.025 554.939 494.413 555.03 494.85 555.038C495.28 555.046 495.676 554.947 496.039 554.741C496.402 554.535 496.712 554.258 496.968 553.911L500.459 554.716C499.956 555.814 499.204 556.714 498.206 557.415C497.207 558.109 496.089 558.455 494.85 558.455ZM492.226 550.556H497.488C497.38 550.143 497.199 549.772 496.943 549.442C496.687 549.112 496.377 548.852 496.014 548.662C495.659 548.472 495.271 548.377 494.85 548.377C494.438 548.377 494.05 548.472 493.687 548.662C493.332 548.852 493.026 549.112 492.77 549.442C492.523 549.764 492.341 550.135 492.226 550.556ZM515.443 550.259V558.133H512.026V551.2C512.026 550.762 511.918 550.37 511.704 550.024C511.497 549.669 511.217 549.388 510.862 549.182C510.515 548.975 510.127 548.872 509.698 548.872C509.269 548.872 508.877 548.975 508.522 549.182C508.167 549.388 507.886 549.669 507.68 550.024C507.473 550.37 507.37 550.762 507.37 551.2V558.133H503.953L503.941 539.562H507.358L507.37 546.669C507.783 546.272 508.266 545.963 508.819 545.74C509.38 545.517 509.97 545.406 510.589 545.406C511.489 545.406 512.302 545.624 513.028 546.062C513.763 546.499 514.349 547.085 514.786 547.82C515.224 548.546 515.443 549.359 515.443 550.259ZM519.156 545.752H522.573V558.133H519.156V545.752ZM520.889 544.329C520.394 544.329 519.977 544.163 519.639 543.833C519.3 543.503 519.131 543.095 519.131 542.608C519.131 542.121 519.3 541.712 519.639 541.382C519.977 541.052 520.39 540.887 520.877 540.887C521.364 540.887 521.772 541.052 522.102 541.382C522.441 541.712 522.61 542.121 522.61 542.608C522.61 543.095 522.445 543.503 522.115 543.833C521.793 544.163 521.384 544.329 520.889 544.329ZM538.159 550.259V558.133H534.742V551.2C534.742 550.762 534.634 550.37 534.42 550.024C534.213 549.669 533.933 549.388 533.578 549.182C533.231 548.975 532.843 548.872 532.414 548.872C531.985 548.872 531.593 548.975 531.238 549.182C530.883 549.388 530.602 549.669 530.396 550.024C530.19 550.37 530.086 550.762 530.086 551.2V558.133H526.669L526.657 545.752H530.074L530.086 546.669C530.499 546.272 530.982 545.963 531.535 545.74C532.096 545.517 532.686 545.406 533.305 545.406C534.205 545.406 535.018 545.624 535.745 546.062C536.479 546.499 537.065 547.085 537.503 547.82C537.94 548.546 538.159 549.359 538.159 550.259ZM550.73 539.562H554.147V558.133H550.73V556.821C550.35 557.3 549.88 557.692 549.319 557.997C548.757 558.302 548.118 558.455 547.4 558.455C546.5 558.455 545.658 558.286 544.874 557.948C544.09 557.609 543.396 557.143 542.794 556.549C542.2 555.946 541.733 555.253 541.395 554.469C541.056 553.684 540.887 552.842 540.887 551.943C540.887 551.043 541.056 550.201 541.395 549.417C541.733 548.633 542.2 547.944 542.794 547.349C543.396 546.747 544.09 546.276 544.874 545.938C545.658 545.6 546.5 545.43 547.4 545.43C548.118 545.43 548.757 545.583 549.319 545.889C549.88 546.186 550.35 546.578 550.73 547.065V539.562ZM547.449 555.174C548.01 555.174 548.518 555.03 548.972 554.741C549.426 554.452 549.785 554.064 550.049 553.577C550.313 553.082 550.445 552.537 550.445 551.943C550.445 551.34 550.313 550.795 550.049 550.309C549.785 549.822 549.426 549.434 548.972 549.145C548.518 548.856 548.01 548.711 547.449 548.711C546.88 548.711 546.364 548.856 545.902 549.145C545.439 549.434 545.072 549.826 544.8 550.321C544.527 550.808 544.391 551.349 544.391 551.943C544.391 552.537 544.527 553.082 544.8 553.577C545.08 554.064 545.452 554.452 545.914 554.741C546.376 555.03 546.888 555.174 547.449 555.174ZM565.555 558.133V540.8H576.525V544.217H568.972V547.139H574.866V550.556H568.972V554.716H576.525V558.133H565.555ZM584.083 558.356C583.447 558.307 582.837 558.175 582.251 557.96C581.665 557.737 581.141 557.44 580.678 557.069C580.224 556.689 579.869 556.235 579.614 555.707L582.486 554.469C582.577 554.601 582.713 554.745 582.894 554.902C583.076 555.05 583.295 555.182 583.551 555.298C583.815 555.414 584.12 555.471 584.467 555.471C584.723 555.471 584.97 555.442 585.21 555.385C585.449 555.319 585.643 555.215 585.792 555.075C585.94 554.927 586.014 554.733 586.014 554.493C586.014 554.229 585.92 554.027 585.73 553.887C585.54 553.746 585.309 553.643 585.036 553.577C584.772 553.503 584.516 553.441 584.269 553.391C583.509 553.259 582.791 553.024 582.114 552.686C581.446 552.339 580.901 551.893 580.48 551.349C580.059 550.804 579.849 550.152 579.849 549.392C579.849 548.559 580.067 547.841 580.505 547.238C580.942 546.627 581.512 546.157 582.214 545.827C582.915 545.496 583.674 545.331 584.492 545.331C585.457 545.331 586.353 545.534 587.178 545.938C588.004 546.342 588.668 546.912 589.172 547.647L586.473 549.244C586.365 549.087 586.225 548.938 586.052 548.798C585.887 548.649 585.693 548.526 585.47 548.427C585.255 548.319 585.024 548.257 584.776 548.241C584.454 548.216 584.161 548.237 583.897 548.303C583.633 548.361 583.423 548.472 583.266 548.637C583.117 548.802 583.043 549.025 583.043 549.306C583.043 549.578 583.163 549.78 583.402 549.912C583.641 550.036 583.918 550.131 584.232 550.197C584.545 550.255 584.822 550.325 585.061 550.408C585.779 550.639 586.452 550.936 587.079 551.299C587.715 551.654 588.227 552.091 588.614 552.611C589.002 553.131 589.184 553.742 589.159 554.444C589.159 555.261 588.916 555.979 588.429 556.598C587.942 557.209 587.31 557.675 586.534 557.997C585.767 558.311 584.95 558.43 584.083 558.356ZM601.349 545.752H604.766V558.133H601.337L601.176 556.846C600.854 557.324 600.441 557.712 599.938 558.009C599.434 558.307 598.844 558.455 598.167 558.455C597.243 558.455 596.38 558.282 595.58 557.935C594.779 557.589 594.073 557.11 593.462 556.499C592.852 555.888 592.373 555.182 592.026 554.382C591.688 553.573 591.519 552.706 591.519 551.782C591.519 550.899 591.68 550.073 592.001 549.306C592.323 548.538 592.777 547.861 593.363 547.275C593.949 546.689 594.622 546.231 595.381 545.901C596.149 545.571 596.974 545.406 597.858 545.406C598.617 545.406 599.298 545.567 599.9 545.889C600.511 546.21 601.044 546.619 601.498 547.114L601.349 545.752ZM598.08 555.174C598.642 555.174 599.149 555.03 599.603 554.741C600.057 554.452 600.416 554.064 600.68 553.577C600.945 553.082 601.077 552.537 601.077 551.943C601.077 551.34 600.945 550.795 600.68 550.309C600.416 549.822 600.057 549.434 599.603 549.145C599.149 548.856 598.642 548.711 598.08 548.711C597.511 548.711 596.995 548.856 596.533 549.145C596.071 549.434 595.703 549.826 595.431 550.321C595.159 550.808 595.022 551.349 595.022 551.943C595.022 552.537 595.159 553.082 595.431 553.577C595.712 554.064 596.083 554.452 596.545 554.741C597.007 555.03 597.519 555.174 598.08 555.174ZM619.994 550.259V558.133H616.577V551.2C616.577 550.762 616.47 550.37 616.255 550.024C616.049 549.669 615.768 549.388 615.413 549.182C615.066 548.975 614.678 548.872 614.249 548.872C613.82 548.872 613.428 548.975 613.073 549.182C612.718 549.388 612.437 549.669 612.231 550.024C612.025 550.37 611.922 550.762 611.922 551.2V558.133H608.504L608.492 545.752H611.909L611.922 546.669C612.334 546.272 612.817 545.963 613.37 545.74C613.931 545.517 614.522 545.406 615.141 545.406C616.04 545.406 616.853 545.624 617.58 546.062C618.314 546.499 618.9 547.085 619.338 547.82C619.775 548.546 619.994 549.359 619.994 550.259ZM631.427 545.752H635.067L628.282 564.324H624.667L626.895 558.133L622.438 545.752H626.177L628.604 553.466L631.427 545.752ZM646.486 545.752H649.903V558.133H646.474L646.313 556.846C645.991 557.324 645.578 557.712 645.075 558.009C644.571 558.307 643.981 558.455 643.304 558.455C642.38 558.455 641.517 558.282 640.717 557.935C639.916 557.589 639.21 557.11 638.6 556.499C637.989 555.888 637.51 555.182 637.163 554.382C636.825 553.573 636.656 552.706 636.656 551.782C636.656 550.899 636.817 550.073 637.139 549.306C637.461 548.538 637.915 547.861 638.501 547.275C639.087 546.689 639.759 546.231 640.519 545.901C641.286 545.571 642.112 545.406 642.995 545.406C643.754 545.406 644.435 545.567 645.038 545.889C645.649 546.21 646.181 546.619 646.635 547.114L646.486 545.752ZM643.218 555.174C643.779 555.174 644.287 555.03 644.741 554.741C645.195 554.452 645.554 554.064 645.818 553.577C646.082 553.082 646.214 552.537 646.214 551.943C646.214 551.34 646.082 550.795 645.818 550.309C645.554 549.822 645.195 549.434 644.741 549.145C644.287 548.856 643.779 548.711 643.218 548.711C642.648 548.711 642.132 548.856 641.67 549.145C641.208 549.434 640.841 549.826 640.568 550.321C640.296 550.808 640.16 551.349 640.16 551.943C640.16 552.537 640.296 553.082 640.568 553.577C640.849 554.064 641.22 554.452 641.683 554.741C642.145 555.03 642.656 555.174 643.218 555.174ZM660.816 558.133V540.8H664.233V554.716H671.216V558.133H660.816ZM675.185 545.752H678.602V558.133H675.185V545.752ZM676.918 544.329C676.423 544.329 676.006 544.163 675.668 543.833C675.329 543.503 675.16 543.095 675.16 542.608C675.16 542.121 675.329 541.712 675.668 541.382C676.006 541.052 676.419 540.887 676.906 540.887C677.393 540.887 677.801 541.052 678.132 541.382C678.47 541.712 678.639 542.121 678.639 542.608C678.639 543.095 678.474 543.503 678.144 543.833C677.822 544.163 677.413 544.329 676.918 544.329ZM694.188 550.259V558.133H690.771V551.2C690.771 550.762 690.663 550.37 690.449 550.024C690.242 549.669 689.962 549.388 689.607 549.182C689.26 548.975 688.872 548.872 688.443 548.872C688.014 548.872 687.622 548.975 687.267 549.182C686.912 549.388 686.631 549.669 686.425 550.024C686.219 550.37 686.115 550.762 686.115 551.2V558.133H682.698L682.686 545.752H686.103L686.115 546.669C686.528 546.272 687.011 545.963 687.564 545.74C688.125 545.517 688.715 545.406 689.335 545.406C690.234 545.406 691.047 545.624 691.774 546.062C692.508 546.499 693.094 547.085 693.532 547.82C693.969 548.546 694.188 549.359 694.188 550.259ZM706.648 545.752H710.065V558.307C710.065 559.223 709.879 560.048 709.508 560.783C709.136 561.526 708.629 562.161 707.985 562.689C707.349 563.218 706.615 563.622 705.781 563.903C704.956 564.183 704.081 564.324 703.156 564.324C702.281 564.324 701.444 564.15 700.643 563.804C699.842 563.465 699.132 562.995 698.513 562.392C697.894 561.79 697.412 561.096 697.065 560.312L700.185 558.889C700.358 559.301 700.593 559.656 700.891 559.953C701.196 560.25 701.543 560.477 701.931 560.634C702.327 560.799 702.735 560.882 703.156 560.882C703.61 560.882 704.044 560.828 704.456 560.721C704.877 560.614 705.253 560.453 705.583 560.238C705.913 560.023 706.173 559.755 706.363 559.433C706.553 559.111 706.648 558.736 706.648 558.307V556.87C706.268 557.341 705.806 557.725 705.261 558.022C704.725 558.311 704.101 558.455 703.392 558.455C702.5 558.455 701.662 558.286 700.878 557.948C700.102 557.609 699.417 557.143 698.823 556.549C698.229 555.946 697.762 555.253 697.424 554.469C697.085 553.684 696.916 552.842 696.916 551.943C696.916 551.043 697.085 550.201 697.424 549.417C697.762 548.633 698.229 547.944 698.823 547.349C699.417 546.747 700.102 546.276 700.878 545.938C701.662 545.6 702.5 545.43 703.392 545.43C704.101 545.43 704.725 545.579 705.261 545.876C705.806 546.165 706.268 546.545 706.648 547.015V545.752ZM703.441 555.174C704.002 555.174 704.51 555.03 704.964 554.741C705.418 554.444 705.773 554.052 706.029 553.565C706.293 553.078 706.425 552.537 706.425 551.943C706.425 551.349 706.293 550.808 706.029 550.321C705.773 549.826 705.418 549.434 704.964 549.145C704.51 548.856 704.002 548.711 703.441 548.711C702.888 548.711 702.38 548.856 701.918 549.145C701.464 549.434 701.101 549.826 700.829 550.321C700.556 550.808 700.42 551.349 700.42 551.943C700.42 552.537 700.556 553.082 700.829 553.577C701.101 554.064 701.464 554.452 701.918 554.741C702.38 555.03 702.888 555.174 703.441 555.174ZM723.026 545.752H726.443V558.133H723.013L722.852 556.846C722.531 557.324 722.118 557.712 721.614 558.009C721.111 558.307 720.521 558.455 719.844 558.455C718.919 558.455 718.057 558.282 717.256 557.935C716.456 557.589 715.75 557.11 715.139 556.499C714.528 555.888 714.05 555.182 713.703 554.382C713.365 553.573 713.195 552.706 713.195 551.782C713.195 550.899 713.356 550.073 713.678 549.306C714 548.538 714.454 547.861 715.04 547.275C715.626 546.689 716.299 546.231 717.058 545.901C717.826 545.571 718.651 545.406 719.534 545.406C720.294 545.406 720.975 545.567 721.577 545.889C722.188 546.21 722.72 546.619 723.174 547.114L723.026 545.752ZM719.757 555.174C720.319 555.174 720.826 555.03 721.28 554.741C721.734 554.452 722.093 554.064 722.357 553.577C722.621 553.082 722.753 552.537 722.753 551.943C722.753 551.34 722.621 550.795 722.357 550.309C722.093 549.822 721.734 549.434 721.28 549.145C720.826 548.856 720.319 548.711 719.757 548.711C719.188 548.711 718.672 548.856 718.21 549.145C717.747 549.434 717.38 549.826 717.108 550.321C716.835 550.808 716.699 551.349 716.699 551.943C716.699 552.537 716.835 553.082 717.108 553.577C717.388 554.064 717.76 554.452 718.222 554.741C718.684 555.03 719.196 555.174 719.757 555.174ZM730.169 558.133V545.752H733.586V546.669C734.007 546.272 734.494 545.963 735.047 545.74C735.6 545.517 736.186 545.406 736.805 545.406C737.647 545.406 738.419 545.6 739.12 545.988C739.83 546.375 740.4 546.891 740.829 547.535C741.266 546.891 741.836 546.375 742.537 545.988C743.239 545.6 744.007 545.406 744.84 545.406C745.74 545.406 746.553 545.624 747.279 546.062C748.014 546.499 748.6 547.085 749.037 547.82C749.475 548.546 749.694 549.359 749.694 550.259V558.133H746.276V551.2C746.276 550.771 746.169 550.383 745.955 550.036C745.748 549.681 745.472 549.401 745.125 549.194C744.778 548.98 744.39 548.872 743.961 548.872C743.532 548.872 743.14 548.975 742.785 549.182C742.438 549.388 742.158 549.669 741.943 550.024C741.737 550.37 741.634 550.762 741.634 551.2V558.133H738.216V551.2C738.216 550.762 738.113 550.37 737.907 550.024C737.701 549.669 737.42 549.388 737.065 549.182C736.718 548.975 736.33 548.872 735.901 548.872C735.48 548.872 735.092 548.98 734.737 549.194C734.391 549.401 734.11 549.681 733.896 550.036C733.689 550.383 733.586 550.771 733.586 551.2V558.133H730.169ZM752.917 559.52L753.685 555.335H757.102L755.195 559.52H752.917ZM767.992 558.133V555.088C768.487 554.741 769.089 554.295 769.799 553.75C770.509 553.197 771.248 552.591 772.015 551.93C772.783 551.262 773.497 550.585 774.157 549.9C774.826 549.215 775.367 548.567 775.779 547.956C776.2 547.345 776.411 546.821 776.411 546.384C776.411 545.93 776.299 545.513 776.076 545.133C775.854 544.754 775.556 544.452 775.185 544.229C774.814 544.007 774.401 543.895 773.947 543.895C773.493 543.895 773.076 544.007 772.696 544.229C772.325 544.452 772.024 544.754 771.793 545.133C771.57 545.513 771.458 545.93 771.458 546.384H768.041C768.041 545.269 768.309 544.267 768.846 543.375C769.391 542.484 770.109 541.778 771 541.258C771.9 540.738 772.882 540.478 773.947 540.478C775.028 540.478 776.015 540.742 776.906 541.27C777.797 541.799 778.507 542.513 779.035 543.412C779.564 544.304 779.828 545.294 779.828 546.384C779.828 546.945 779.741 547.49 779.568 548.018C779.403 548.546 779.159 549.075 778.837 549.603C778.515 550.123 778.123 550.655 777.661 551.2C777.207 551.736 776.691 552.298 776.114 552.884C775.544 553.462 774.929 554.072 774.269 554.716H779.877V558.133H767.992ZM785.872 558.133V544.217H783.594L784.51 540.8H789.289V558.133H785.872ZM801.171 558.133V540.8H807.621C808.554 540.8 809.4 540.994 810.159 541.382C810.919 541.762 811.517 542.306 811.954 543.016C812.4 543.726 812.623 544.56 812.623 545.517C812.623 545.905 812.569 546.305 812.462 546.718C812.363 547.131 812.19 547.51 811.942 547.857C811.703 548.204 811.373 548.468 810.952 548.649C811.496 548.782 811.934 549.029 812.264 549.392C812.594 549.747 812.846 550.16 813.019 550.63C813.193 551.093 813.308 551.567 813.366 552.054C813.424 552.541 813.453 552.983 813.453 553.379C813.453 554.27 813.221 555.075 812.759 555.793C812.297 556.511 811.674 557.081 810.89 557.502C810.114 557.923 809.255 558.133 808.314 558.133H801.171ZM804.588 555.224H807.955C808.409 555.224 808.822 555.116 809.194 554.902C809.565 554.679 809.862 554.378 810.085 553.998C810.308 553.61 810.419 553.173 810.419 552.686C810.419 552.273 810.308 551.881 810.085 551.509C809.862 551.138 809.565 550.837 809.194 550.606C808.822 550.366 808.409 550.247 807.955 550.247H804.588V555.224ZM804.588 547.399H807.225C807.77 547.399 808.236 547.222 808.624 546.867C809.012 546.512 809.206 546.054 809.206 545.492C809.206 544.915 809.012 544.477 808.624 544.18C808.236 543.875 807.77 543.722 807.225 543.722H804.588V547.399ZM837.47 540.8V544.217H832.369V558.133H828.952V544.217H823.851V540.8H837.47ZM848.407 545.752H851.824V558.133H848.395L848.234 556.846C847.912 557.324 847.499 557.712 846.996 558.009C846.492 558.307 845.902 558.455 845.225 558.455C844.301 558.455 843.438 558.282 842.638 557.935C841.837 557.589 841.131 557.11 840.52 556.499C839.91 555.888 839.431 555.182 839.084 554.382C838.746 553.573 838.577 552.706 838.577 551.782C838.577 550.899 838.738 550.073 839.059 549.306C839.381 548.538 839.835 547.861 840.421 547.275C841.007 546.689 841.68 546.231 842.439 545.901C843.207 545.571 844.033 545.406 844.916 545.406C845.675 545.406 846.356 545.567 846.959 545.889C847.569 546.21 848.102 546.619 848.556 547.114L848.407 545.752ZM845.139 555.174C845.7 555.174 846.207 555.03 846.661 554.741C847.115 554.452 847.474 554.064 847.739 553.577C848.003 553.082 848.135 552.537 848.135 551.943C848.135 551.34 848.003 550.795 847.739 550.309C847.474 549.822 847.115 549.434 846.661 549.145C846.207 548.856 845.7 548.711 845.139 548.711C844.569 548.711 844.053 548.856 843.591 549.145C843.129 549.434 842.761 549.826 842.489 550.321C842.217 550.808 842.08 551.349 842.08 551.943C842.08 552.537 842.217 553.082 842.489 553.577C842.77 554.064 843.141 554.452 843.603 554.741C844.066 555.03 844.577 555.174 845.139 555.174ZM855.55 558.133V545.752H858.967V546.669C859.388 546.272 859.875 545.963 860.428 545.74C860.981 545.517 861.567 545.406 862.186 545.406C863.028 545.406 863.8 545.6 864.502 545.988C865.211 546.375 865.781 546.891 866.21 547.535C866.648 546.891 867.217 546.375 867.919 545.988C868.62 545.6 869.388 545.406 870.222 545.406C871.121 545.406 871.934 545.624 872.661 546.062C873.395 546.499 873.981 547.085 874.419 547.82C874.856 548.546 875.075 549.359 875.075 550.259V558.133H871.658V551.2C871.658 550.771 871.55 550.383 871.336 550.036C871.13 549.681 870.853 549.401 870.506 549.194C870.16 548.98 869.772 548.872 869.343 548.872C868.913 548.872 868.521 548.975 868.166 549.182C867.82 549.388 867.539 549.669 867.324 550.024C867.118 550.37 867.015 550.762 867.015 551.2V558.133H863.598V551.2C863.598 550.762 863.495 550.37 863.288 550.024C863.082 549.669 862.801 549.388 862.446 549.182C862.1 548.975 861.712 548.872 861.283 548.872C860.862 548.872 860.474 548.98 860.119 549.194C859.772 549.401 859.491 549.681 859.277 550.036C859.07 550.383 858.967 550.771 858.967 551.2V558.133H855.55ZM878.793 545.752H882.211V558.133H878.793V545.752ZM880.527 544.329C880.032 544.329 879.615 544.163 879.276 543.833C878.938 543.503 878.769 543.095 878.769 542.608C878.769 542.121 878.938 541.712 879.276 541.382C879.615 541.052 880.027 540.887 880.514 540.887C881.001 540.887 881.41 541.052 881.74 541.382C882.079 541.712 882.248 542.121 882.248 542.608C882.248 543.095 882.083 543.503 881.753 543.833C881.431 544.163 881.022 544.329 880.527 544.329ZM886.44 558.133V539.562H889.857V558.133H886.44ZM901.248 558.133V545.752H904.666V546.669C905.087 546.272 905.574 545.963 906.127 545.74C906.68 545.517 907.266 545.406 907.885 545.406C908.727 545.406 909.498 545.6 910.2 545.988C910.91 546.375 911.479 546.891 911.908 547.535C912.346 546.891 912.915 546.375 913.617 545.988C914.319 545.6 915.086 545.406 915.92 545.406C916.82 545.406 917.633 545.624 918.359 546.062C919.094 546.499 919.68 547.085 920.117 547.82C920.554 548.546 920.773 549.359 920.773 550.259V558.133H917.356V551.2C917.356 550.771 917.249 550.383 917.034 550.036C916.828 549.681 916.551 549.401 916.205 549.194C915.858 548.98 915.47 548.872 915.041 548.872C914.612 548.872 914.22 548.975 913.865 549.182C913.518 549.388 913.237 549.669 913.023 550.024C912.816 550.37 912.713 550.762 912.713 551.2V558.133H909.296V551.2C909.296 550.762 909.193 550.37 908.987 550.024C908.78 549.669 908.5 549.388 908.145 549.182C907.798 548.975 907.41 548.872 906.981 548.872C906.56 548.872 906.172 548.98 905.817 549.194C905.47 549.401 905.19 549.681 904.975 550.036C904.769 550.383 904.666 550.771 904.666 551.2V558.133H901.248ZM924.492 545.752H927.909V558.133H924.492V545.752ZM926.225 544.329C925.73 544.329 925.313 544.163 924.975 543.833C924.636 543.503 924.467 543.095 924.467 542.608C924.467 542.121 924.636 541.712 924.975 541.382C925.313 541.052 925.726 540.887 926.213 540.887C926.7 540.887 927.108 541.052 927.438 541.382C927.777 541.712 927.946 542.121 927.946 542.608C927.946 543.095 927.781 543.503 927.451 543.833C927.129 544.163 926.72 544.329 926.225 544.329ZM943.495 550.259V558.133H940.078V551.2C940.078 550.762 939.97 550.37 939.756 550.024C939.549 549.669 939.269 549.388 938.914 549.182C938.567 548.975 938.179 548.872 937.75 548.872C937.321 548.872 936.929 548.975 936.574 549.182C936.219 549.388 935.938 549.669 935.732 550.024C935.526 550.37 935.422 550.762 935.422 551.2V558.133H932.005L931.993 545.752H935.41L935.422 546.669C935.835 546.272 936.318 545.963 936.871 545.74C937.432 545.517 938.022 545.406 938.641 545.406C939.541 545.406 940.354 545.624 941.081 546.062C941.815 546.499 942.401 547.085 942.839 547.82C943.276 548.546 943.495 549.359 943.495 550.259ZM965.897 550.259V558.133H962.479V551.2C962.479 550.762 962.372 550.37 962.158 550.024C961.951 549.669 961.671 549.388 961.316 549.182C960.969 548.975 960.581 548.872 960.152 548.872C959.723 548.872 959.331 548.975 958.976 549.182C958.621 549.388 958.34 549.669 958.134 550.024C957.927 550.37 957.824 550.762 957.824 551.2V558.133H954.407L954.395 545.752H957.812L957.824 546.669C958.237 546.272 958.72 545.963 959.273 545.74C959.834 545.517 960.424 545.406 961.043 545.406C961.943 545.406 962.756 545.624 963.482 546.062C964.217 546.499 964.803 547.085 965.24 547.82C965.678 548.546 965.897 549.359 965.897 550.259ZM978.456 545.752H981.873V558.133H978.443L978.282 556.846C977.96 557.324 977.548 557.712 977.044 558.009C976.541 558.307 975.95 558.455 975.274 558.455C974.349 558.455 973.487 558.282 972.686 557.935C971.885 557.589 971.18 557.11 970.569 556.499C969.958 555.888 969.479 555.182 969.133 554.382C968.794 553.573 968.625 552.706 968.625 551.782C968.625 550.899 968.786 550.073 969.108 549.306C969.43 548.538 969.884 547.861 970.47 547.275C971.056 546.689 971.729 546.231 972.488 545.901C973.256 545.571 974.081 545.406 974.964 545.406C975.723 545.406 976.404 545.567 977.007 545.889C977.618 546.21 978.15 546.619 978.604 547.114L978.456 545.752ZM975.187 555.174C975.748 555.174 976.256 555.03 976.71 554.741C977.164 554.452 977.523 554.064 977.787 553.577C978.051 553.082 978.183 552.537 978.183 551.943C978.183 551.34 978.051 550.795 977.787 550.309C977.523 549.822 977.164 549.434 976.71 549.145C976.256 548.856 975.748 548.711 975.187 548.711C974.617 548.711 974.102 548.856 973.639 549.145C973.177 549.434 972.81 549.826 972.537 550.321C972.265 550.808 972.129 551.349 972.129 551.943C972.129 552.537 972.265 553.082 972.537 553.577C972.818 554.064 973.189 554.452 973.652 554.741C974.114 555.03 974.626 555.174 975.187 555.174ZM994.345 545.752H997.762V558.307C997.762 559.223 997.577 560.048 997.205 560.783C996.834 561.526 996.326 562.161 995.682 562.689C995.047 563.218 994.312 563.622 993.479 563.903C992.653 564.183 991.778 564.324 990.854 564.324C989.979 564.324 989.141 564.15 988.341 563.804C987.54 563.465 986.83 562.995 986.211 562.392C985.592 561.79 985.109 561.096 984.762 560.312L987.882 558.889C988.056 559.301 988.291 559.656 988.588 559.953C988.894 560.25 989.24 560.477 989.628 560.634C990.024 560.799 990.433 560.882 990.854 560.882C991.308 560.882 991.741 560.828 992.154 560.721C992.575 560.614 992.95 560.453 993.281 560.238C993.611 560.023 993.871 559.755 994.061 559.433C994.25 559.111 994.345 558.736 994.345 558.307V556.87C993.966 557.341 993.503 557.725 992.959 558.022C992.422 558.311 991.799 558.455 991.089 558.455C990.198 558.455 989.36 558.286 988.576 557.948C987.8 557.609 987.115 557.143 986.521 556.549C985.926 555.946 985.46 555.253 985.121 554.469C984.783 553.684 984.614 552.842 984.614 551.943C984.614 551.043 984.783 550.201 985.121 549.417C985.46 548.633 985.926 547.944 986.521 547.349C987.115 546.747 987.8 546.276 988.576 545.938C989.36 545.6 990.198 545.43 991.089 545.43C991.799 545.43 992.422 545.579 992.959 545.876C993.503 546.165 993.966 546.545 994.345 547.015V545.752ZM991.139 555.174C991.7 555.174 992.208 555.03 992.661 554.741C993.115 554.444 993.47 554.052 993.726 553.565C993.99 553.078 994.122 552.537 994.122 551.943C994.122 551.349 993.99 550.808 993.726 550.321C993.47 549.826 993.115 549.434 992.661 549.145C992.208 548.856 991.7 548.711 991.139 548.711C990.586 548.711 990.078 548.856 989.616 549.145C989.162 549.434 988.799 549.826 988.526 550.321C988.254 550.808 988.118 551.349 988.118 551.943C988.118 552.537 988.254 553.082 988.526 553.577C988.799 554.064 989.162 554.452 989.616 554.741C990.078 555.03 990.586 555.174 991.139 555.174ZM1010.72 545.752H1014.14V558.133H1010.71L1010.55 556.846C1010.23 557.324 1009.82 557.712 1009.31 558.009C1008.81 558.307 1008.22 558.455 1007.54 558.455C1006.62 558.455 1005.75 558.282 1004.95 557.935C1004.15 557.589 1003.45 557.11 1002.84 556.499C1002.23 555.888 1001.75 555.182 1001.4 554.382C1001.06 553.573 1000.89 552.706 1000.89 551.782C1000.89 550.899 1001.05 550.073 1001.38 549.306C1001.7 548.538 1002.15 547.861 1002.74 547.275C1003.32 546.689 1004 546.231 1004.76 545.901C1005.52 545.571 1006.35 545.406 1007.23 545.406C1007.99 545.406 1008.67 545.567 1009.27 545.889C1009.89 546.21 1010.42 546.619 1010.87 547.114L1010.72 545.752ZM1007.45 555.174C1008.02 555.174 1008.52 555.03 1008.98 554.741C1009.43 554.452 1009.79 554.064 1010.05 553.577C1010.32 553.082 1010.45 552.537 1010.45 551.943C1010.45 551.34 1010.32 550.795 1010.05 550.309C1009.79 549.822 1009.43 549.434 1008.98 549.145C1008.52 548.856 1008.02 548.711 1007.45 548.711C1006.89 548.711 1006.37 548.856 1005.91 549.145C1005.44 549.434 1005.08 549.826 1004.81 550.321C1004.53 550.808 1004.4 551.349 1004.4 551.943C1004.4 552.537 1004.53 553.082 1004.81 553.577C1005.09 554.064 1005.46 554.452 1005.92 554.741C1006.38 555.03 1006.89 555.174 1007.45 555.174ZM1017.88 558.133L1017.87 545.752H1021.28L1021.3 546.669C1021.71 546.272 1022.19 545.963 1022.74 545.74C1023.31 545.517 1023.9 545.406 1024.51 545.406C1024.97 545.406 1025.42 545.472 1025.88 545.604L1024.53 549.058C1024.23 548.934 1023.93 548.872 1023.62 548.872C1023.19 548.872 1022.8 548.975 1022.45 549.182C1022.09 549.388 1021.81 549.669 1021.61 550.024C1021.4 550.37 1021.3 550.762 1021.3 551.2V558.133H1017.88Z" fill="white"/>
<line y1="498.221" x2="1050" y2="498.221" stroke="#352D1F" stroke-width="4"/>
<defs>
<clipPath id="clip0_5_128">
<rect width="490.674" height="451.548" fill="white" transform="translate(279.663 25.0368)"/>
</clipPath>
</defs>
</svg>
