<svg width="72" height="72" viewBox="0 0 72 72" fill="none" xmlns="http://www.w3.org/2000/svg">
<rect width="72" height="72" fill="white"/>
<path d="M7.52851 34.9641H5.49486V18.6407C5.49486 18.0984 5.42255 17.6916 5.27794 17.4205C5.13332 17.1493 4.89832 16.9776 4.57294 16.9053C4.24755 16.833 4.00351 16.7697 3.84082 16.7155C3.67813 16.6432 3.59678 16.5076 3.59678 16.3088C3.59678 15.9834 3.82274 15.8207 4.27467 15.8207H6.71505C7.25736 15.8207 7.52851 16.1099 7.52851 16.6884V24.0638H15.392V15.7936H17.3985V34.9641H15.392V25.5822H7.52851V34.9641ZM27.0787 17.1764H25.2891C24.4395 17.1764 24.0147 17.5289 24.0147 18.2339V34.9641H21.981V18.5864C21.981 18.0441 21.8997 17.6464 21.737 17.3934C21.5924 17.1222 21.3664 16.9505 21.0591 16.8782C20.7518 16.8059 20.5439 16.7245 20.4354 16.6341C20.327 16.5438 20.2727 16.4172 20.2727 16.2545C20.2727 15.9472 20.4987 15.7936 20.9506 15.7936H27.0245C28.9587 15.7936 30.4681 16.2636 31.5527 17.2036C32.6374 18.1255 33.1797 19.3818 33.1797 20.9726C33.1797 22.708 32.6554 24.0457 31.607 24.9857C30.5766 25.9076 29.1937 26.4138 27.4583 26.5041L33.0983 34.9641H30.6308L24.9908 26.3957C24.7377 26.0522 24.6654 25.7539 24.7739 25.5009C24.9004 25.2297 25.1716 25.0941 25.5874 25.0941H26.6449C27.9283 25.0941 28.9858 24.7416 29.8174 24.0366C30.6489 23.3136 31.0647 22.2922 31.0647 20.9726C31.0827 19.8157 30.6851 18.8938 29.8716 18.2068C29.0762 17.5199 28.1452 17.1764 27.0787 17.1764ZM38.2774 34.9641H36.2437V18.6136C36.2437 18.0713 36.1714 17.6645 36.0268 17.3934C35.8822 17.1222 35.6472 16.9505 35.3218 16.8782C34.9964 16.8059 34.7524 16.7336 34.5897 16.6613C34.427 16.5889 34.3456 16.4624 34.3456 16.2816C34.3456 15.9563 34.5716 15.7936 35.0235 15.7936H37.4639C38.0062 15.7936 38.2774 16.0828 38.2774 16.6613V34.9641ZM44.9206 24.2264H48.6625C49.4579 24.2264 50.0635 24.0728 50.4793 23.7655C50.895 23.4401 51.1029 23.0153 51.1029 22.4911C51.1029 22.238 51.2475 22.1114 51.5368 22.1114C51.8441 22.1114 51.9977 22.238 51.9977 22.4911V27.3718C51.9977 27.643 51.8441 27.7786 51.5368 27.7786C51.2475 27.7786 51.1029 27.643 51.1029 27.3718C51.1029 26.8657 50.895 26.4409 50.4793 26.0974C50.0635 25.7539 49.4579 25.5822 48.6625 25.5822H44.9206V34.9641H42.887V18.5864C42.887 18.0441 42.8056 17.6464 42.6429 17.3934C42.4983 17.1222 42.2724 16.9505 41.965 16.8782C41.6758 16.8059 41.4679 16.7336 41.3414 16.6613C41.2329 16.5709 41.1787 16.4353 41.1787 16.2545C41.1787 15.9472 41.4047 15.7936 41.8566 15.7936H52.8925L53.0281 18.9932C53.0281 19.2824 52.8745 19.4361 52.5672 19.4541C52.2779 19.4541 52.1062 19.3005 52.052 18.9932C51.9616 18.4509 51.7718 18.017 51.4825 17.6916C51.1933 17.3482 50.6149 17.1764 49.7472 17.1764H46.195C45.3454 17.1764 44.9206 17.5289 44.9206 18.2339V24.2264ZM61.5152 24.2264L66.396 15.7936H67.4806C67.7518 15.7936 67.9145 15.8749 67.9687 16.0376C68.041 16.2003 68.0139 16.3811 67.8874 16.5799L62.3829 25.9076V34.9641H60.3764V25.9076L56.2549 19.0203C55.8391 18.3153 55.5408 17.8091 55.3601 17.5018C55.1974 17.1945 54.9895 16.9866 54.7364 16.8782C54.5014 16.7878 54.3116 16.7064 54.167 16.6341C54.0404 16.5618 53.9772 16.4353 53.9772 16.2545C53.9772 15.9472 54.2122 15.7936 54.6822 15.7936H56.7972L61.5152 24.2264Z" fill="#FF0000"/>
<ellipse cx="36.5508" cy="11.859" rx="2.31385" ry="2.31385" fill="#FF0000"/>
<rect x="16.6934" y="43.6251" width="37.9099" height="18.9099" rx="3.45496" fill="url(#paint0_linear_800_1404)"/>
<path d="M25.6313 56.6884L24.7531 53.9469H21.9285L21.0622 56.6884H20.2195L22.4982 49.7337C22.6169 49.3065 22.6525 49.0533 22.605 48.9742C22.5575 48.8951 22.4388 48.8318 22.2489 48.7843C22.1224 48.7526 22.0274 48.721 21.9641 48.6894C21.9008 48.6577 21.8692 48.5984 21.8692 48.5113C21.8692 48.3689 21.972 48.2977 22.1777 48.2977H23.7799L26.5808 56.6884H25.6313ZM24.5395 53.2941L23.3171 49.5201L22.1303 53.2941H24.5395ZM27.9693 53.7807C27.9693 54.5244 28.1117 55.106 28.3966 55.5253C28.6893 55.9446 29.0533 56.1543 29.4884 56.1543C29.9078 56.1543 30.2559 55.9486 30.5328 55.5372C30.8097 55.1178 30.9482 54.5719 30.9482 53.8994V53.1161C30.9482 52.5702 30.7979 52.139 30.4972 51.8225C30.2045 51.4981 29.8524 51.3359 29.4409 51.3359C29.0216 51.3359 28.6695 51.5456 28.3847 51.9649C28.1078 52.3763 27.9693 52.9816 27.9693 53.7807ZM30.9601 55.9407C30.5882 56.4945 30.0818 56.7714 29.4409 56.7714C28.6972 56.7714 28.1196 56.4906 27.7082 55.9288C27.2968 55.3592 27.0911 54.6313 27.0911 53.7451C27.0911 52.7957 27.2928 52.048 27.6964 51.5021C28.1078 50.9482 28.6537 50.6713 29.3341 50.6713C30.0225 50.6713 30.5645 50.8968 30.9601 51.3478V49.259C30.9601 49.0217 30.9284 48.8476 30.8651 48.7368C30.8097 48.6181 30.7187 48.543 30.5921 48.5113C30.4576 48.4797 30.3627 48.448 30.3073 48.4164C30.2598 48.3768 30.2361 48.3175 30.2361 48.2384C30.2361 48.1039 30.339 48.0366 30.5447 48.0366H31.4585C31.688 48.0366 31.8027 48.1592 31.8027 48.4045V56.6884H30.9601V55.9407ZM34.4492 56.6884H33.6066V52.0599C33.6066 51.8225 33.575 51.6445 33.5117 51.5258C33.4563 51.4071 33.3653 51.332 33.2387 51.3003C33.1121 51.2687 33.0211 51.237 32.9657 51.2054C32.9104 51.1737 32.8827 51.1183 32.8827 51.0392C32.8827 50.8968 32.9855 50.8256 33.1912 50.8256H34.1051C34.3345 50.8256 34.4492 50.9522 34.4492 51.2054V51.953C34.5363 51.6603 34.7301 51.3873 35.0308 51.1342C35.3314 50.8651 35.6914 50.7306 36.1108 50.7306C36.5538 50.7306 36.9059 50.8889 37.167 51.2054C37.3173 51.4111 37.4241 51.7236 37.4874 52.1429C37.5745 51.7869 37.7604 51.4665 38.0452 51.1816C38.3459 50.881 38.7257 50.7306 39.1846 50.7306C39.6276 50.7306 39.9758 50.8968 40.2289 51.2291C40.49 51.5535 40.6206 52.1469 40.6206 53.0093V56.6884H39.7661V53.0212C39.7661 52.4911 39.6949 52.0994 39.5525 51.8462C39.4101 51.5931 39.2083 51.4665 38.9472 51.4665C38.6386 51.4665 38.3261 51.688 38.0096 52.1311C37.7011 52.5821 37.5468 53.2111 37.5468 54.0181V56.6884H36.6923V53.0212C36.6923 52.4832 36.625 52.0915 36.4905 51.8462C36.3639 51.5931 36.1582 51.4665 35.8734 51.4665C35.5648 51.4665 35.2523 51.688 34.9358 52.1311C34.6114 52.5821 34.4492 53.2111 34.4492 54.0181V56.6884ZM43.2553 56.6884H42.3771V52.0599C42.3771 51.8225 42.3494 51.6445 42.294 51.5258C42.2386 51.4071 42.1436 51.332 42.0091 51.3003C41.8826 51.2687 41.7916 51.237 41.7362 51.2054C41.6887 51.1658 41.665 51.1104 41.665 51.0392C41.665 50.8968 41.7639 50.8256 41.9617 50.8256H42.8992C43.1366 50.8256 43.2553 50.9522 43.2553 51.2054V56.6884ZM43.3977 48.7962C43.3977 48.994 43.3265 49.1641 43.1841 49.3065C43.0496 49.441 42.8874 49.5082 42.6975 49.5082C42.4997 49.5082 42.3296 49.441 42.1872 49.3065C42.0527 49.1641 41.9854 48.994 41.9854 48.7962C41.9854 48.6063 42.0527 48.4441 42.1872 48.3096C42.3296 48.1672 42.4997 48.096 42.6975 48.096C42.8874 48.096 43.0496 48.1672 43.1841 48.3096C43.3265 48.4441 43.3977 48.6063 43.3977 48.7962ZM45.8544 56.6884H45.0236V52.0599C45.0236 51.8225 44.992 51.6445 44.9287 51.5258C44.8654 51.4071 44.7704 51.332 44.6438 51.3003C44.5252 51.2687 44.4342 51.237 44.3709 51.2054C44.3155 51.1737 44.2878 51.1183 44.2878 51.0392C44.2878 50.8968 44.3907 50.8256 44.5964 50.8256H45.5102C45.7396 50.8256 45.8544 50.9522 45.8544 51.2054V52.0599C46.0126 51.6959 46.2658 51.3834 46.6139 51.1223C46.9541 50.8612 47.3537 50.7306 47.8126 50.7306C48.2636 50.7306 48.6434 50.9047 48.9519 51.2528C49.2605 51.5931 49.4148 52.1944 49.4148 53.0568V56.6884H48.5603V52.9974C48.5603 52.4594 48.4732 52.0757 48.2992 51.8462C48.1251 51.6168 47.8878 51.5021 47.5871 51.5021C47.1599 51.5021 46.7682 51.7394 46.4122 52.2141C46.0403 52.6968 45.8544 53.3574 45.8544 54.1961V56.6884Z" fill="white"/>
<defs>
<linearGradient id="paint0_linear_800_1404" x1="35.6483" y1="43.6251" x2="35.6483" y2="62.535" gradientUnits="userSpaceOnUse">
<stop stop-color="#FF0000"/>
<stop offset="1" stop-color="#990000"/>
</linearGradient>
</defs>
</svg>
